<?xml version="1.0" encoding="UTF-8" standalone="no"?>
<!DOCTYPE svg PUBLIC "-//W3C//DTD SVG 1.1//EN" "http://www.w3.org/Graphics/SVG/1.1/DTD/svg11.dtd">
<svg version="1.1" xmlns="http://www.w3.org/2000/svg" xmlns:xlink="http://www.w3.org/1999/xlink" preserveAspectRatio="xMidYMid meet" viewBox="0 0 1250 1920" width="1250" height="1920"><defs><path d="M1561.83 372.54C1544.76 372.54 1530.92 359.3 1530.92 342.97C1530.92 326.64 1544.76 313.4 1561.83 313.4C1568.01 313.4 1617.45 313.4 1623.63 313.4C1640.7 313.4 1654.54 326.64 1654.54 342.97C1654.54 359.3 1640.7 372.54 1623.63 372.54C1611.27 372.54 1568.01 372.54 1561.83 372.54Z" id="b54w2YqaRS"></path><path d="M1558.73 866.77C1558.73 491.17 1240.5 186.69 847.96 186.69C455.41 186.69 137.18 491.17 137.18 866.77C137.18 1242.36 455.41 1546.85 847.96 1546.85C1240.5 1546.85 1558.73 1242.36 1558.73 866.77Z" id="a1pzEEvGTZ"></path><path d="M218.4 1645.64C175.26 1645.64 140.29 1612.18 140.29 1570.9C140.29 1529.62 175.26 1496.16 218.4 1496.16C375.84 1496.16 1635.31 1496.16 1792.74 1496.16C1835.89 1496.16 1870.86 1529.62 1870.86 1570.9C1870.86 1612.18 1835.89 1645.64 1792.74 1645.64C1477.88 1645.64 375.84 1645.64 218.4 1645.64Z" id="adiGLf9qZ"></path><path d="M218.4 1675.21C158.29 1675.21 109.39 1628.41 109.39 1570.89C109.39 1513.38 158.29 1466.58 218.4 1466.58C375.84 1466.58 1635.31 1466.58 1792.74 1466.58C1852.86 1466.58 1901.76 1513.38 1901.76 1570.89C1901.76 1628.41 1852.86 1675.21 1792.74 1675.21C1477.88 1675.21 375.84 1675.21 218.4 1675.21ZM171.19 1570.89C171.19 1595.8 192.38 1616.07 218.4 1616.07C375.84 1616.07 1635.31 1616.07 1792.74 1616.07C1818.77 1616.07 1839.96 1595.8 1839.96 1570.89C1839.96 1545.99 1818.77 1525.72 1792.74 1525.72C1687.79 1525.72 1163.01 1525.72 218.4 1525.72C186.93 1539.23 171.19 1554.29 171.19 1570.89Z" id="d2xEbOB5bk"></path><path d="M232.99 1496.15C232.99 1389.36 232.99 1330.04 232.99 1318.17C232.99 1253.16 288.07 1200.47 356.01 1200.47C489.01 1200.47 1553.03 1200.47 1686.04 1200.47C1753.98 1200.47 1809.05 1253.16 1809.05 1318.17C1809.05 1330.04 1809.05 1389.36 1809.05 1496.15L232.99 1496.15Z" id="g80Vwo8W6"></path><path d="M232.99 1525.72C215.92 1525.72 202.09 1512.48 202.09 1496.15C202.09 1478.35 202.09 1335.98 202.09 1318.18C202.09 1236.97 271.14 1170.9 356.02 1170.9C489.02 1170.9 1553.03 1170.9 1686.03 1170.9C1770.9 1170.9 1839.96 1236.97 1839.96 1318.18C1839.96 1335.98 1839.96 1478.35 1839.96 1496.15C1839.96 1512.48 1826.12 1525.72 1809.05 1525.72C1493.84 1525.72 390.6 1525.72 232.99 1525.72ZM1778.15 1466.58C1778.15 1377.54 1778.15 1328.07 1778.15 1318.18C1778.15 1269.58 1736.82 1230.03 1686.03 1230.03C1553.03 1230.03 489.02 1230.03 356.02 1230.03C305.23 1230.03 263.89 1269.58 263.89 1318.18C263.89 1328.07 263.89 1377.54 263.89 1466.58L1778.15 1466.58Z" id="a64Q6pXWt0"></path><path d="M667.2 618.32C667.2 600.87 652.42 586.72 634.17 586.72C615.92 586.72 601.13 600.87 601.13 618.32C601.13 635.78 615.92 649.93 634.17 649.93C652.42 649.93 667.2 635.78 667.2 618.32Z" id="a6pI4w1jzI"></path><path d="M1903.33 854.87C1903.33 837.41 1888.54 823.27 1870.3 823.27C1852.05 823.27 1837.26 837.41 1837.26 854.87C1837.26 872.33 1852.05 886.48 1870.3 886.48C1888.54 886.48 1903.33 872.33 1903.33 854.87Z" id="a57EvW68t7"></path><path d="M747.9 934.35C694.37 934.35 645.22 962.65 620.15 1007.91C613.04 1020.74 577.5 1084.93 513.51 1200.47L1655.73 1200.47C1611.15 1093.14 1586.38 1033.51 1581.43 1021.58C1559.56 968.92 1506.31 934.35 1447.08 934.35C1307.25 934.35 817.82 934.35 747.9 934.35Z" id="a1kpWfiirw"></path><path d="M513.51 1230.03C502.68 1230.03 492.62 1224.61 487.02 1215.71C481.44 1206.82 481.12 1195.79 486.2 1186.61C496.86 1167.36 582.19 1013.31 592.85 994.05C623.34 938.99 682.76 904.77 747.89 904.77C817.81 904.77 1377.16 904.77 1447.08 904.77C1519.41 904.77 1583.42 946.34 1610.15 1010.66C1617.58 1028.54 1677.01 1171.65 1684.44 1189.54C1688.23 1198.63 1687.06 1208.94 1681.31 1217.06C1675.54 1225.18 1665.98 1230.03 1655.74 1230.03C1427.29 1230.03 627.73 1230.03 513.51 1230.03ZM1610.2 1170.9C1575.72 1087.85 1556.56 1041.72 1552.73 1032.49C1535.42 990.84 1493.96 963.92 1447.08 963.92C1377.17 963.92 817.82 963.92 747.9 963.92C705.71 963.92 667.23 986.08 647.48 1021.75C641.97 1031.7 614.43 1081.41 564.86 1170.9L1610.2 1170.9Z" id="a19dXvGI12"></path><path d="M974.67 1496.15C974.67 1439.97 974.67 990.53 974.67 934.35C974.67 918.02 988.5 904.78 1005.57 904.78C1022.64 904.78 1036.47 918.02 1036.47 934.35C1036.47 990.53 1036.47 1439.97 1036.47 1496.15C1036.47 1512.48 1022.64 1525.72 1005.57 1525.72C988.5 1525.72 974.67 1512.48 974.67 1496.15Z" id="e1vH7Gkesa"></path><path d="M845.12 1322.67C828.05 1322.67 814.22 1309.43 814.22 1293.1C814.22 1276.77 828.05 1263.53 845.12 1263.53C848.8 1263.53 878.27 1263.53 881.96 1263.53C899.02 1263.53 912.86 1276.77 912.86 1293.1C912.86 1309.43 899.02 1322.67 881.96 1322.67C874.59 1322.67 848.8 1322.67 845.12 1322.67Z" id="a74fcNg2p"></path><path d="M728.65 1628.01C728.65 1520.92 637.92 1434.11 525.99 1434.11C414.07 1434.11 323.34 1520.92 323.34 1628.01C323.34 1735.1 414.07 1821.92 525.99 1821.92C637.92 1821.92 728.65 1735.1 728.65 1628.01Z" id="a4UAkUQMH9"></path><path d="M292.43 1628.01C292.43 1504.79 397.2 1404.55 525.98 1404.55C654.77 1404.55 759.53 1504.79 759.53 1628.01C759.53 1751.23 654.77 1851.48 525.98 1851.48C397.2 1851.48 292.43 1751.23 292.43 1628.01ZM354.24 1628.01C354.24 1718.61 431.29 1792.33 525.98 1792.33C620.68 1792.33 697.73 1718.61 697.73 1628.01C697.73 1537.4 620.69 1463.68 525.98 1463.68C431.28 1463.68 354.24 1537.4 354.24 1628.01Z" id="a1kRlg5jQ2"></path><path d="M611.94 1628.01C611.94 1582.6 573.46 1545.78 525.99 1545.78C478.52 1545.78 440.04 1582.6 440.04 1628.01C440.04 1673.43 478.52 1710.25 525.99 1710.25C573.46 1710.25 611.94 1673.43 611.94 1628.01Z" id="a79v75dK8"></path><path d="M409.13 1628.01C409.13 1566.36 461.55 1516.21 525.98 1516.21C590.42 1516.21 642.84 1566.36 642.84 1628.01C642.84 1689.66 590.42 1739.82 525.98 1739.82C461.55 1739.82 409.13 1689.66 409.13 1628.01ZM470.94 1628.01C470.94 1657.07 495.62 1680.68 525.98 1680.68C556.35 1680.68 581.03 1657.07 581.03 1628.01C581.03 1598.96 556.35 1575.34 525.98 1575.34C495.62 1575.34 470.94 1598.96 470.94 1628.01Z" id="c4nRgxZHG7"></path><path d="M1698.52 1628.01C1698.52 1520.92 1607.79 1434.11 1495.87 1434.11C1383.94 1434.11 1293.21 1520.92 1293.21 1628.01C1293.21 1735.1 1383.94 1821.92 1495.87 1821.92C1607.79 1821.92 1698.52 1735.1 1698.52 1628.01Z" id="exOdZnc0u"></path><path d="M1262.31 1628.01C1262.31 1504.79 1367.08 1404.55 1495.86 1404.55C1624.64 1404.55 1729.42 1504.79 1729.42 1628.01C1729.42 1751.23 1624.65 1851.48 1495.86 1851.48C1367.07 1851.48 1262.31 1751.23 1262.31 1628.01ZM1324.11 1628.01C1324.11 1718.61 1401.16 1792.33 1495.86 1792.33C1590.58 1792.33 1667.62 1718.61 1667.62 1628.01C1667.62 1537.4 1590.58 1463.68 1495.86 1463.68C1401.15 1463.68 1324.11 1537.4 1324.11 1628.01Z" id="a2E3KypSqk"></path><path d="M1581.07 1628.01C1581.07 1582.99 1542.92 1546.49 1495.87 1546.49C1448.81 1546.49 1410.66 1582.99 1410.66 1628.01C1410.66 1673.04 1448.81 1709.54 1495.87 1709.54C1542.92 1709.54 1581.07 1673.04 1581.07 1628.01Z" id="b4h7wqj91F"></path><path d="M1379.76 1628.01C1379.76 1566.75 1431.85 1516.92 1495.86 1516.92C1559.88 1516.92 1611.97 1566.75 1611.97 1628.01C1611.97 1689.27 1559.89 1739.11 1495.86 1739.11C1431.85 1739.11 1379.76 1689.27 1379.76 1628.01ZM1441.57 1628.01C1441.57 1656.65 1465.92 1679.97 1495.86 1679.97C1525.79 1679.97 1550.16 1656.65 1550.16 1628.01C1550.16 1599.36 1525.79 1576.05 1495.86 1576.05C1465.92 1576.05 1441.57 1599.36 1441.57 1628.01Z" id="eG7BcLBCN"></path><path d="M1654.54 283.84C1654.54 277.92 1654.54 230.61 1654.54 224.7C1654.54 208.37 1668.37 195.13 1685.44 195.13C1702.51 195.13 1716.34 208.37 1716.34 224.7C1716.34 230.61 1716.34 277.92 1716.34 283.84C1716.34 300.17 1702.51 313.4 1685.44 313.4C1668.37 313.4 1654.54 300.17 1654.54 283.84Z" id="cjDl3UTuB"></path><path d="M1654.54 461.25C1654.54 455.33 1654.54 408.02 1654.54 402.11C1654.54 385.78 1668.37 372.54 1685.44 372.54C1702.51 372.54 1716.34 385.78 1716.34 402.11C1716.34 408.02 1716.34 455.33 1716.34 461.25C1716.34 477.58 1702.51 490.82 1685.44 490.82C1668.37 490.82 1654.54 477.58 1654.54 461.25Z" id="c1G25EJFjG"></path><path d="M1747.25 372.54C1730.18 372.54 1716.34 359.3 1716.34 342.97C1716.34 326.64 1730.18 313.4 1747.25 313.4C1753.43 313.4 1802.87 313.4 1809.05 313.4C1826.12 313.4 1839.96 326.64 1839.96 342.97C1839.96 359.3 1826.12 372.54 1809.05 372.54C1796.69 372.54 1753.43 372.54 1747.25 372.54Z" id="d3uPlJ7Hc"></path><path d="M140.28 756.94C140.28 751.02 140.28 703.71 140.28 697.8C140.28 681.47 154.12 668.23 171.18 668.23C188.25 668.23 202.09 681.47 202.09 697.8C202.09 703.71 202.09 751.02 202.09 756.94C202.09 773.26 188.25 786.5 171.18 786.5C154.12 786.5 140.28 773.26 140.28 756.94Z" id="ccvnbCt5g"></path><path d="M140.28 934.35C140.28 928.43 140.28 881.12 140.28 875.21C140.28 858.88 154.12 845.64 171.18 845.64C188.25 845.64 202.09 858.88 202.09 875.21C202.09 881.12 202.09 928.43 202.09 934.35C202.09 950.68 188.25 963.92 171.18 963.92C154.12 963.92 140.28 950.68 140.28 934.35Z" id="aqqBNLsDp"></path><path d="M47.57 845.64C30.51 845.64 16.67 832.4 16.67 816.07C16.67 799.74 30.51 786.5 47.57 786.5C53.75 786.5 103.2 786.5 109.38 786.5C126.44 786.5 140.28 799.74 140.28 816.07C140.28 832.4 126.44 845.64 109.38 845.64C97.02 845.64 53.75 845.64 47.57 845.64Z" id="d1KsOAsIrn"></path><path d="M232.99 845.64C215.92 845.64 202.09 832.4 202.09 816.07C202.09 799.74 215.92 786.5 232.99 786.5C239.17 786.5 288.62 786.5 294.8 786.5C311.86 786.5 325.7 799.74 325.7 816.07C325.7 832.4 311.86 845.64 294.8 845.64C282.44 845.64 239.17 845.64 232.99 845.64Z" id="d26nMKErmn"></path></defs><g><g><g><use xlink:href="#b54w2YqaRS" opacity="1" fill="#002642" fill-opacity="1"></use><g><use xlink:href="#b54w2YqaRS" opacity="1" fill-opacity="0" stroke="#000000" stroke-width="1" stroke-opacity="0"></use></g></g><g><use xlink:href="#a1pzEEvGTZ" opacity="1" fill="#eaeaea" fill-opacity="1"></use><g><use xlink:href="#a1pzEEvGTZ" opacity="1" fill-opacity="0" stroke="#000000" stroke-width="1" stroke-opacity="0"></use></g></g><g><use xlink:href="#adiGLf9qZ" opacity="1" fill="#edebdc" fill-opacity="1"></use><g><use xlink:href="#adiGLf9qZ" opacity="1" fill-opacity="0" stroke="#000000" stroke-width="1" stroke-opacity="0"></use></g></g><g><use xlink:href="#d2xEbOB5bk" opacity="1" fill="#002642" fill-opacity="1"></use><g><use xlink:href="#d2xEbOB5bk" opacity="1" fill-opacity="0" stroke="#000000" stroke-width="1" stroke-opacity="0"></use></g></g><g><use xlink:href="#g80Vwo8W6" opacity="1" fill="#004d84" fill-opacity="1"></use><g><use xlink:href="#g80Vwo8W6" opacity="1" fill-opacity="0" stroke="#000000" stroke-width="1" stroke-opacity="0"></use></g></g><g><use xlink:href="#a64Q6pXWt0" opacity="1" fill="#002642" fill-opacity="1"></use><g><use xlink:href="#a64Q6pXWt0" opacity="1" fill-opacity="0" stroke="#000000" stroke-width="1" stroke-opacity="0"></use></g></g><g><use xlink:href="#a6pI4w1jzI" opacity="1" fill="#002642" fill-opacity="1"></use><g><use xlink:href="#a6pI4w1jzI" opacity="1" fill-opacity="0" stroke="#000000" stroke-width="1" stroke-opacity="0"></use></g></g><g><use xlink:href="#a57EvW68t7" opacity="1" fill="#002642" fill-opacity="1"></use><g><use xlink:href="#a57EvW68t7" opacity="1" fill-opacity="0" stroke="#000000" stroke-width="1" stroke-opacity="0"></use></g></g><g><use xlink:href="#a1kpWfiirw" opacity="1" fill="#c1dbdc" fill-opacity="1"></use><g><use xlink:href="#a1kpWfiirw" opacity="1" fill-opacity="0" stroke="#000000" stroke-width="1" stroke-opacity="0"></use></g></g><g><use xlink:href="#a19dXvGI12" opacity="1" fill="#002642" fill-opacity="1"></use><g><use xlink:href="#a19dXvGI12" opacity="1" fill-opacity="0" stroke="#000000" stroke-width="1" stroke-opacity="0"></use></g></g><g><use xlink:href="#e1vH7Gkesa" opacity="1" fill="#002642" fill-opacity="1"></use><g><use xlink:href="#e1vH7Gkesa" opacity="1" fill-opacity="0" stroke="#000000" stroke-width="1" stroke-opacity="0"></use></g></g><g><use xlink:href="#a74fcNg2p" opacity="1" fill="#002642" fill-opacity="1"></use><g><use xlink:href="#a74fcNg2p" opacity="1" fill-opacity="0" stroke="#000000" stroke-width="1" stroke-opacity="0"></use></g></g><g><use xlink:href="#a4UAkUQMH9" opacity="1" fill="#004d84" fill-opacity="1"></use><g><use xlink:href="#a4UAkUQMH9" opacity="1" fill-opacity="0" stroke="#000000" stroke-width="1" stroke-opacity="0"></use></g></g><g><use xlink:href="#a1kRlg5jQ2" opacity="1" fill="#002642" fill-opacity="1"></use><g><use xlink:href="#a1kRlg5jQ2" opacity="1" fill-opacity="0" stroke="#000000" stroke-width="1" stroke-opacity="0"></use></g></g><g><use xlink:href="#a79v75dK8" opacity="1" fill="#b5a19c" fill-opacity="1"></use><g><use xlink:href="#a79v75dK8" opacity="1" fill-opacity="0" stroke="#000000" stroke-width="1" stroke-opacity="0"></use></g></g><g><use xlink:href="#c4nRgxZHG7" opacity="1" fill="#002642" fill-opacity="1"></use><g><use xlink:href="#c4nRgxZHG7" opacity="1" fill-opacity="0" stroke="#000000" stroke-width="1" stroke-opacity="0"></use></g></g><g><use xlink:href="#exOdZnc0u" opacity="1" fill="#004d84" fill-opacity="1"></use><g><use xlink:href="#exOdZnc0u" opacity="1" fill-opacity="0" stroke="#000000" stroke-width="1" stroke-opacity="0"></use></g></g><g><use xlink:href="#a2E3KypSqk" opacity="1" fill="#002642" fill-opacity="1"></use><g><use xlink:href="#a2E3KypSqk" opacity="1" fill-opacity="0" stroke="#000000" stroke-width="1" stroke-opacity="0"></use></g></g><g><use xlink:href="#b4h7wqj91F" opacity="1" fill="#b5a19c" fill-opacity="1"></use><g><use xlink:href="#b4h7wqj91F" opacity="1" fill-opacity="0" stroke="#000000" stroke-width="1" stroke-opacity="0"></use></g></g><g><use xlink:href="#eG7BcLBCN" opacity="1" fill="#002642" fill-opacity="1"></use><g><use xlink:href="#eG7BcLBCN" opacity="1" fill-opacity="0" stroke="#000000" stroke-width="1" stroke-opacity="0"></use></g></g><g><use xlink:href="#cjDl3UTuB" opacity="1" fill="#002642" fill-opacity="1"></use><g><use xlink:href="#cjDl3UTuB" opacity="1" fill-opacity="0" stroke="#000000" stroke-width="1" stroke-opacity="0"></use></g></g><g><use xlink:href="#c1G25EJFjG" opacity="1" fill="#002642" fill-opacity="1"></use><g><use xlink:href="#c1G25EJFjG" opacity="1" fill-opacity="0" stroke="#000000" stroke-width="1" stroke-opacity="0"></use></g></g><g><use xlink:href="#d3uPlJ7Hc" opacity="1" fill="#002642" fill-opacity="1"></use><g><use xlink:href="#d3uPlJ7Hc" opacity="1" fill-opacity="0" stroke="#000000" stroke-width="1" stroke-opacity="0"></use></g></g><g><use xlink:href="#ccvnbCt5g" opacity="1" fill="#002642" fill-opacity="1"></use><g><use xlink:href="#ccvnbCt5g" opacity="1" fill-opacity="0" stroke="#000000" stroke-width="1" stroke-opacity="0"></use></g></g><g><use xlink:href="#aqqBNLsDp" opacity="1" fill="#002642" fill-opacity="1"></use><g><use xlink:href="#aqqBNLsDp" opacity="1" fill-opacity="0" stroke="#000000" stroke-width="1" stroke-opacity="0"></use></g></g><g><use xlink:href="#d1KsOAsIrn" opacity="1" fill="#002642" fill-opacity="1"></use><g><use xlink:href="#d1KsOAsIrn" opacity="1" fill-opacity="0" stroke="#000000" stroke-width="1" stroke-opacity="0"></use></g></g><g><use xlink:href="#d26nMKErmn" opacity="1" fill="#002642" fill-opacity="1"></use><g><use xlink:href="#d26nMKErmn" opacity="1" fill-opacity="0" stroke="#000000" stroke-width="1" stroke-opacity="0"></use></g></g></g></g></svg>