<svg width="1171" height="716" viewBox="0 0 1171 716" fill="none" xmlns="http://www.w3.org/2000/svg">
<g opacity="0.3">
<path d="M884.732 541.222C983.771 541.222 1064.06 461.484 1064.06 363.121C1064.06 264.758 983.771 185.02 884.732 185.02C785.693 185.02 705.406 264.758 705.406 363.121C705.406 461.484 785.693 541.222 884.732 541.222Z" fill="#EAEAEA"/>
<path d="M1123.1 567.095H725.897C715.013 567.095 706.189 558.332 706.189 547.522C706.189 536.712 715.013 527.948 725.897 527.948H1123.1C1133.98 527.948 1142.81 536.712 1142.81 547.522C1142.81 558.332 1133.98 567.095 1123.1 567.095Z" fill="#EDEBDC"/>
<path d="M1123.1 574.837H725.897C710.731 574.837 698.392 562.583 698.392 547.52C698.392 532.457 710.731 520.202 725.897 520.202H1123.1C1138.27 520.202 1150.6 532.457 1150.6 547.52C1150.6 562.583 1138.27 574.837 1123.1 574.837ZM725.897 535.69C719.331 535.69 713.986 540.998 713.986 547.52C713.986 554.042 719.331 559.35 725.897 559.35H1123.1C1129.67 559.35 1135.01 554.042 1135.01 547.52C1135.01 540.998 1129.67 535.69 1123.1 535.69H725.897Z" fill="#002642"/>
<path d="M1127.21 527.946H729.578V481.336C729.578 464.312 743.473 450.511 760.615 450.511H1096.18C1113.32 450.511 1127.21 464.312 1127.21 481.336V527.946Z" fill="#004D84"/>
<path d="M1127.21 535.69H729.578C725.272 535.69 721.781 532.222 721.781 527.946V481.338C721.781 460.07 739.203 442.767 760.617 442.767H1096.17C1117.59 442.767 1135.01 460.07 1135.01 481.338V527.946C1135.01 532.222 1131.52 535.69 1127.21 535.69ZM737.374 520.202H1119.42V481.338C1119.42 468.611 1108.99 458.254 1096.17 458.254H760.617C747.803 458.254 737.374 468.611 737.374 481.338V520.202Z" fill="#002642"/>
<path d="M741.273 218.205C726.227 218.205 713.984 206.045 713.984 191.102C713.984 176.159 726.227 164 741.273 164C756.319 164 768.561 176.159 768.561 191.102C768.561 206.045 756.319 218.205 741.273 218.205V218.205ZM741.273 179.487C734.823 179.487 729.578 184.697 729.578 191.102C729.578 197.508 734.823 202.718 741.273 202.718C747.723 202.718 752.968 197.508 752.968 191.102C752.968 184.697 747.723 179.487 741.273 179.487V179.487Z" fill="#002642"/>
<path d="M830.793 306.336C835.397 306.336 839.128 302.63 839.128 298.058C839.128 293.486 835.397 289.78 830.793 289.78C826.19 289.78 822.459 293.486 822.459 298.058C822.459 302.63 826.19 306.336 830.793 306.336Z" fill="#002642"/>
<path d="M1142.67 368.284C1147.27 368.284 1151 364.578 1151 360.006C1151 355.434 1147.27 351.728 1142.67 351.728C1138.06 351.728 1134.33 355.434 1134.33 360.006C1134.33 364.578 1138.06 368.284 1142.67 368.284Z" fill="#002642"/>
<path d="M1035.89 380.819H859.488C845.982 380.819 833.583 388.231 827.258 400.083L800.351 450.511H1088.53L1069.78 403.664C1064.27 389.873 1050.83 380.819 1035.89 380.819Z" fill="#C1DBDC"/>
<path d="M1088.53 458.254H800.351C797.618 458.254 795.082 456.833 793.669 454.502C792.26 452.174 792.18 449.285 793.461 446.883L820.369 396.455C828.063 382.035 843.052 373.073 859.486 373.073H1035.89C1054.14 373.073 1070.29 383.959 1077.03 400.803L1095.78 447.649C1096.73 450.031 1096.43 452.731 1094.98 454.857C1093.53 456.984 1091.12 458.254 1088.53 458.254V458.254ZM813.307 442.767H1077.04L1062.54 406.522C1058.18 395.613 1047.72 388.562 1035.89 388.562H859.488C848.843 388.562 839.136 394.366 834.152 403.709L813.307 442.767Z" fill="#002642"/>
<path d="M955.684 349.845H902.224L893.312 380.819H955.684V349.845Z" fill="#004D84"/>
<path d="M955.684 388.562H893.31C890.862 388.562 888.558 387.42 887.086 385.48C885.615 383.541 885.141 381.026 885.815 378.689L894.727 347.715C895.682 344.391 898.745 342.101 902.224 342.101H955.686C959.992 342.101 963.483 345.568 963.483 349.845V380.819C963.481 385.095 959.99 388.562 955.684 388.562V388.562ZM903.647 373.075H947.888V357.588H908.105L903.647 373.075Z" fill="#002642"/>
<path d="M924.497 535.69C920.192 535.69 916.701 532.222 916.701 527.946V380.819C916.701 376.543 920.192 373.075 924.497 373.075C928.803 373.075 932.294 376.543 932.294 380.819V527.946C932.294 532.222 928.803 535.69 924.497 535.69Z" fill="#002642"/>
<path d="M893.31 482.513H884.016C879.711 482.513 876.22 479.046 876.22 474.769C876.22 470.493 879.711 467.026 884.016 467.026H893.31C897.616 467.026 901.107 470.493 901.107 474.769C901.107 479.046 897.616 482.513 893.31 482.513Z" fill="#002642"/>
<path d="M803.501 613.258C831.739 613.258 854.63 590.523 854.63 562.478C854.63 534.433 831.739 511.698 803.501 511.698C775.263 511.698 752.371 534.433 752.371 562.478C752.371 590.523 775.263 613.258 803.501 613.258Z" fill="#004D84"/>
<path d="M803.499 621C771.006 621 744.575 594.748 744.575 562.478C744.575 530.209 771.008 503.957 803.499 503.957C835.99 503.957 862.423 530.209 862.423 562.478C862.423 594.748 835.992 621 803.499 621ZM803.499 519.442C779.606 519.442 760.168 538.748 760.168 562.476C760.168 586.204 779.608 605.511 803.499 605.511C827.39 605.511 846.83 586.204 846.83 562.476C846.83 538.748 827.392 519.442 803.499 519.442Z" fill="#002642"/>
<path d="M803.501 584.015C815.477 584.015 825.186 574.373 825.186 562.478C825.186 550.584 815.477 540.942 803.501 540.942C791.525 540.942 781.816 550.584 781.816 562.478C781.816 574.373 791.525 584.015 803.501 584.015Z" fill="#B5A19C"/>
<path d="M803.499 591.758C787.243 591.758 774.017 578.623 774.017 562.478C774.017 546.333 787.243 533.198 803.499 533.198C819.755 533.198 832.981 546.333 832.981 562.478C832.981 578.623 819.755 591.758 803.499 591.758ZM803.499 548.685C795.839 548.685 789.611 554.87 789.611 562.478C789.611 570.086 795.839 576.271 803.499 576.271C811.159 576.271 817.387 570.086 817.387 562.478C817.387 554.87 811.159 548.685 803.499 548.685Z" fill="#002642"/>
<path d="M1048.2 613.258C1076.44 613.258 1099.33 590.523 1099.33 562.478C1099.33 534.433 1076.44 511.698 1048.2 511.698C1019.96 511.698 997.068 534.433 997.068 562.478C997.068 590.523 1019.96 613.258 1048.2 613.258Z" fill="#004D84"/>
<path d="M1048.2 621C1015.7 621 989.271 594.748 989.271 562.478C989.271 530.209 1015.7 503.957 1048.2 503.957C1080.69 503.957 1107.12 530.209 1107.12 562.478C1107.12 594.748 1080.69 621 1048.2 621ZM1048.2 519.442C1024.3 519.442 1004.86 538.748 1004.86 562.476C1004.86 586.204 1024.3 605.511 1048.2 605.511C1072.09 605.511 1091.53 586.204 1091.53 562.476C1091.53 538.748 1072.09 519.442 1048.2 519.442Z" fill="#002642"/>
<path d="M1048.2 583.829C1060.07 583.829 1069.7 574.27 1069.7 562.478C1069.7 550.687 1060.07 541.127 1048.2 541.127C1036.32 541.127 1026.7 550.687 1026.7 562.478C1026.7 574.27 1036.32 583.829 1048.2 583.829Z" fill="#B5A19C"/>
<path d="M1048.2 591.573C1032.05 591.573 1018.9 578.521 1018.9 562.478C1018.9 546.436 1032.05 533.384 1048.2 533.384C1064.35 533.384 1077.49 546.436 1077.49 562.478C1077.49 578.521 1064.35 591.573 1048.2 591.573ZM1048.2 548.869C1040.64 548.869 1034.5 554.975 1034.5 562.476C1034.5 569.978 1040.64 576.084 1048.2 576.084C1055.75 576.084 1061.9 569.978 1061.9 562.476C1061.9 554.975 1055.75 548.869 1048.2 548.869Z" fill="#002642"/>
<path d="M1096.03 218.205C1091.72 218.205 1088.23 214.738 1088.23 210.461V194.974C1088.23 190.698 1091.72 187.231 1096.03 187.231C1100.33 187.231 1103.82 190.698 1103.82 194.974V210.461C1103.82 214.738 1100.33 218.205 1096.03 218.205Z" fill="#002642"/>
<path d="M1096.03 264.666C1091.72 264.666 1088.23 261.199 1088.23 256.922V241.435C1088.23 237.159 1091.72 233.692 1096.03 233.692C1100.33 233.692 1103.82 237.159 1103.82 241.435V256.922C1103.82 261.199 1100.33 264.666 1096.03 264.666Z" fill="#002642"/>
<path d="M1080.43 233.692H1064.84C1060.53 233.692 1057.04 230.225 1057.04 225.948C1057.04 221.672 1060.53 218.205 1064.84 218.205H1080.43C1084.74 218.205 1088.23 221.672 1088.23 225.948C1088.23 230.225 1084.74 233.692 1080.43 233.692Z" fill="#002642"/>
<path d="M1127.21 233.692H1111.62C1107.31 233.692 1103.82 230.225 1103.82 225.948C1103.82 221.672 1107.31 218.205 1111.62 218.205H1127.21C1131.52 218.205 1135.01 221.672 1135.01 225.948C1135.01 230.225 1131.52 233.692 1127.21 233.692Z" fill="#002642"/>
<path d="M713.984 342.101C709.678 342.101 706.187 338.634 706.187 334.358V318.871C706.187 314.594 709.678 311.127 713.984 311.127C718.29 311.127 721.781 314.594 721.781 318.871V334.358C721.781 338.634 718.29 342.101 713.984 342.101Z" fill="#002642"/>
<path d="M713.984 388.562C709.678 388.562 706.187 385.095 706.187 380.819V365.332C706.187 361.055 709.678 357.588 713.984 357.588C718.29 357.588 721.781 361.055 721.781 365.332V380.819C721.781 385.095 718.29 388.562 713.984 388.562Z" fill="#002642"/>
<path d="M698.39 357.588H682.797C678.491 357.588 675 354.121 675 349.845C675 345.568 678.491 342.101 682.797 342.101H698.39C702.696 342.101 706.187 345.568 706.187 349.845C706.187 354.121 702.696 357.588 698.39 357.588Z" fill="#002642"/>
<path d="M745.171 357.588H729.578C725.272 357.588 721.781 354.121 721.781 349.845C721.781 345.568 725.272 342.101 729.578 342.101H745.171C749.477 342.101 752.968 345.568 752.968 349.845C752.968 354.121 749.477 357.588 745.171 357.588V357.588Z" fill="#002642"/>
<rect x="905" y="162" width="266" height="474" fill="white"/>
</g>
</svg>
