<svg width="30" height="30" viewBox="0 0 30 30" fill="none" xmlns="http://www.w3.org/2000/svg">
<g clip-path="url(#clip0)">
<path d="M20.1596 3.9998H16.1509V6.31288H20.1596V3.9998Z" fill="#D5F5FB"/>
<path d="M16.0459 3.9998H20.2647C21.0414 3.9998 21.671 3.3702 21.671 2.59353C21.671 1.81686 21.0414 1.18726 20.2647 1.18726H16.0459C15.2692 1.18726 14.6396 1.81686 14.6396 2.59353C14.6396 3.3702 15.2692 3.9998 16.0459 3.9998Z" fill="#81C4F4"/>
<path d="M18.1642 28.8132C24.3775 28.8132 29.4144 23.7764 29.4144 17.5631C29.4144 11.3498 24.3775 6.31288 18.1642 6.31288C11.9509 6.31288 6.91406 11.3498 6.91406 17.5631C6.91406 23.7764 11.9509 28.8132 18.1642 28.8132Z" fill="#004D84"/>
<path d="M18.1642 26.0668C22.8607 26.0668 26.668 22.2596 26.668 17.5631C26.668 12.8666 22.8607 9.05928 18.1642 9.05928C13.4677 9.05928 9.6604 12.8666 9.6604 17.5631C9.6604 22.2596 13.4677 26.0668 18.1642 26.0668Z" fill="white"/>
<path d="M18.1642 18.7978C18.8462 18.7978 19.3991 18.245 19.3991 17.563C19.3991 16.8811 18.8462 16.3282 18.1642 16.3282C17.4823 16.3282 16.9294 16.8811 16.9294 17.563C16.9294 18.245 17.4823 18.7978 18.1642 18.7978Z" fill="#81C4F4"/>
<path d="M29.9422 16.3858C29.6728 13.6765 28.4624 11.1223 26.5338 9.19361C24.8857 7.54552 22.8684 6.48642 20.7457 6.01549V4.52672C21.6127 4.31103 22.2571 3.52627 22.2571 2.59351C22.2571 1.49497 21.3634 0.601288 20.2649 0.601288H16.0461C14.9476 0.601288 14.0539 1.49497 14.0539 2.59351C14.0539 3.52622 14.6983 4.31097 15.5652 4.52672V6.01965C13.4491 6.49257 11.4384 7.55021 9.79498 9.19367C9.43532 9.55332 9.10368 9.93061 8.8001 10.3227C8.78539 10.3216 8.77068 10.3205 8.75568 10.3205H4.58017C4.25661 10.3205 3.99422 10.5828 3.99422 10.9064C3.99422 11.2301 4.25661 11.4924 4.58017 11.4924H8.0028C7.57318 12.2116 7.22677 12.967 6.9631 13.7445H0.585947C0.262387 13.7445 0 14.0069 0 14.3305C0 14.6541 0.262387 14.9164 0.585947 14.9164H6.63198C6.46311 15.6577 6.36619 16.4121 6.34117 17.1686H3.75006C3.4265 17.1686 3.16411 17.431 3.16411 17.7546C3.16411 18.0782 3.4265 18.3405 3.75006 18.3405H6.35986C6.40932 19.099 6.53125 19.8534 6.72573 20.5927H2.92973C2.60617 20.5927 2.34379 20.8551 2.34379 21.1787C2.34379 21.5023 2.60617 21.7646 2.92973 21.7646H7.09968C7.67449 23.2852 8.57281 24.7104 9.79498 25.9326C11.7254 27.863 14.2823 29.0737 16.9944 29.3417C17.3815 29.3799 17.7688 29.3988 18.1557 29.3988C20.4422 29.3988 22.6996 28.7371 24.615 27.4897C24.8862 27.3131 24.9629 26.9501 24.7863 26.679C24.6097 26.4078 24.2467 26.3311 23.9755 26.5077C19.7827 29.238 14.1674 28.6477 10.6236 25.1039C6.46563 20.9459 6.46563 14.1804 10.6236 10.0224C14.7816 5.86444 21.5471 5.86444 25.7051 10.0224C29.2442 13.5615 29.8377 19.172 27.1164 23.3628C26.9402 23.6342 27.0174 23.9971 27.2887 24.1733C27.5602 24.3496 27.9231 24.2724 28.0992 24.001C29.5532 21.7618 30.2077 19.0574 29.9422 16.3858ZM15.2258 2.59357C15.2258 2.14121 15.5937 1.77324 16.0461 1.77324H20.2649C20.7173 1.77324 21.0852 2.14121 21.0852 2.59357C21.0852 3.04592 20.7173 3.41389 20.2649 3.41389H20.1598H16.1511H16.0461C15.5937 3.41389 15.2258 3.04586 15.2258 2.59357ZM16.7371 5.81821V4.58578H19.5738V5.8161C18.6319 5.70406 17.6789 5.70477 16.7371 5.81821Z" fill="black"/>
<path d="M26.1196 24.932C25.9649 24.932 25.8144 24.9947 25.7054 25.1037C25.5959 25.2127 25.5337 25.3639 25.5337 25.518C25.5337 25.6721 25.5959 25.8232 25.7054 25.9322C25.8144 26.0418 25.965 26.1039 26.1196 26.1039C26.2737 26.1039 26.4243 26.0418 26.5339 25.9322C26.6429 25.8232 26.7056 25.6721 26.7056 25.518C26.7056 25.3639 26.6429 25.2127 26.5339 25.1037C26.4243 24.9947 26.2737 24.932 26.1196 24.932Z" fill="black"/>
<path d="M18.1644 8.47331C13.1524 8.47331 9.07471 12.5509 9.07471 17.563C9.07471 22.5752 13.1524 26.6528 18.1644 26.6528C23.1765 26.6528 27.2542 22.5752 27.2542 17.563C27.2542 12.5509 23.1765 8.47331 18.1644 8.47331ZM18.1644 25.4809C13.7985 25.4809 10.2466 21.9289 10.2466 17.563C10.2466 13.1972 13.7985 9.64521 18.1644 9.64521C22.5304 9.64521 26.0823 13.1972 26.0823 17.563C26.0823 21.9289 22.5304 25.4809 18.1644 25.4809Z" fill="black"/>
<path d="M21.871 13.0279L18.9688 15.9301C18.7261 15.8101 18.4531 15.7423 18.1645 15.7423C17.8759 15.7423 17.6029 15.8101 17.3602 15.9301L16.0613 14.6312C15.8325 14.4024 15.4616 14.4024 15.2326 14.6312C15.0038 14.86 15.0038 15.231 15.2326 15.4598L16.5315 16.7587C16.4115 17.0014 16.3437 17.2744 16.3437 17.563C16.3437 18.5669 17.1605 19.3838 18.1645 19.3838C19.1685 19.3838 19.9853 18.5669 19.9853 17.563C19.9853 17.2744 19.9175 17.0014 19.7975 16.7587L22.6145 13.9417L22.6996 13.8566C22.9284 13.6278 22.9284 13.2567 22.6996 13.0279C22.4708 12.7991 22.0999 12.7991 21.871 13.0279ZM18.1645 18.2119C17.8067 18.2119 17.5156 17.9208 17.5156 17.563C17.5156 17.2053 17.8067 16.9142 18.1645 16.9142C18.5223 16.9142 18.8134 17.2053 18.8134 17.563C18.8134 17.9208 18.5223 18.2119 18.1645 18.2119Z" fill="black"/>
<path d="M24.4293 16.9843H23.8865C23.5629 16.9843 23.3005 17.2466 23.3005 17.5702C23.3005 17.8938 23.5629 18.1561 23.8865 18.1561H24.4293C24.7529 18.1561 25.0153 17.8938 25.0153 17.5702C25.0153 17.2466 24.7529 16.9843 24.4293 16.9843Z" fill="black"/>
<path d="M12.4422 16.97H11.8994C11.5759 16.97 11.3135 17.2323 11.3135 17.5559C11.3135 17.8795 11.5759 18.1418 11.8994 18.1418H12.4422C12.7658 18.1418 13.0282 17.8795 13.0282 17.5559C13.0282 17.2323 12.7658 16.97 12.4422 16.97Z" fill="black"/>
<path d="M18.1714 12.4269C18.4949 12.4269 18.7573 12.1646 18.7573 11.841V11.2982C18.7573 10.9745 18.4949 10.7122 18.1714 10.7122C17.8478 10.7122 17.5854 10.9745 17.5854 11.2982V11.841C17.5854 12.1646 17.8478 12.4269 18.1714 12.4269Z" fill="black"/>
<path d="M18.1572 22.6992C17.8337 22.6992 17.5713 22.9615 17.5713 23.2851V23.8279C17.5713 24.1515 17.8337 24.4139 18.1572 24.4139C18.4808 24.4139 18.7432 24.1515 18.7432 23.8279V23.2851C18.7432 22.9615 18.4808 22.6992 18.1572 22.6992Z" fill="black"/>
<path d="M0.585938 20.5925C0.431836 20.5925 0.280664 20.6552 0.17168 20.7642C0.0626953 20.8732 0 21.0244 0 21.1785C0 21.3331 0.0626367 21.4837 0.17168 21.5927C0.280723 21.7017 0.431836 21.7644 0.585938 21.7644C0.740039 21.7644 0.891211 21.7017 1.00014 21.5927C1.10912 21.4837 1.17188 21.3326 1.17188 21.1785C1.17188 21.0244 1.10918 20.8732 1.00014 20.7642C0.891211 20.6552 0.740039 20.5925 0.585938 20.5925Z" fill="black"/>
</g>
<defs>
<clipPath id="clip0">
<rect width="30" height="30" fill="white"/>
</clipPath>
</defs>
</svg>
