<svg width="71" height="69" viewBox="0 0 71 69" fill="none" xmlns="http://www.w3.org/2000/svg">
<g clip-path="url(#clip0)">
<path d="M57.893 44.4229C57.8941 43.9216 57.7517 43.4307 57.4809 43.0039L54.8547 38.8952C54.5273 38.2635 54.3577 37.5654 54.3601 36.8581V24.2002C54.3601 15.9828 47.5062 9.32202 39.0506 9.32202H31.9847C23.5292 9.32202 16.6753 15.9828 16.6753 24.2002V36.8581C16.6777 37.5654 16.5081 38.2636 16.1807 38.8952L13.5545 43.0039C13.2836 43.4308 13.1411 43.9217 13.1423 44.4229C13.1482 45.8936 14.3729 47.0839 15.8863 47.0896H55.149C56.6623 47.0838 57.8871 45.8935 57.893 44.4229Z" fill="#88B337"/>
<path d="M39.0508 9.32192L44.9391 1.31061H26.0967L31.985 9.32192V11.6109H39.0508V9.32192Z" fill="#88B337"/>
<path d="M57.4809 43.0038L54.8547 38.8952C54.5273 38.2634 54.3577 37.5653 54.36 36.858V24.2001C54.3682 20.8857 53.2365 17.6629 51.1451 15.0444C48.0008 31.8796 36.9309 41.5847 26.5322 47.0896H55.1491C56.6706 47.0953 57.9095 45.9017 57.9153 44.4218C57.9177 43.9205 57.7751 43.4295 57.5043 43.0038H57.4809Z" fill="#6B962A"/>
<path d="M41.406 26.4891V25.7566C41.4002 23.6359 39.6313 21.9169 37.4491 21.9112H36.6954V19.6222H34.3401V21.9112H33.5864C31.4006 21.9043 29.6236 23.6199 29.6165 25.7441C29.6107 27.3567 30.641 28.801 32.1968 29.3617L34.3401 30.14V34.5005H33.5864C32.7019 34.5005 31.9847 33.8035 31.9847 32.944V32.2115H29.6294V32.944C29.6352 35.0646 31.4041 36.7837 33.5863 36.7894H37.449C39.6347 36.7962 41.4118 35.0807 41.4189 32.9565C41.4247 31.3439 40.3944 29.8996 38.8386 29.3388L36.6953 28.5606V24.2001H37.449C38.3334 24.2001 39.0505 24.8971 39.0505 25.7566V26.4891H41.406ZM38.0144 31.4789C38.6362 31.7135 39.0472 32.2949 39.0507 32.9438C39.0507 33.8034 38.3334 34.5004 37.4491 34.5004H36.6954V30.9983L38.0144 31.4789ZM34.3401 27.7021L33.0212 27.2214C32.3994 26.9868 31.9883 26.4054 31.9849 25.7565C31.9849 24.8969 32.7021 24.1999 33.5865 24.1999H34.3402V27.7021H34.3401Z" fill="white"/>
<path d="M59.0707 12.7554C58.6703 10.4069 56.7766 8.56655 54.3601 8.17748C56.7766 7.78841 58.6703 5.94804 59.0707 3.59961C59.471 5.94804 61.3647 7.78841 63.7812 8.17748C61.3647 8.56655 59.471 10.4069 59.0707 12.7554Z" fill="#FDB62F"/>
<path d="M6.07653 35.6449C5.67618 33.2964 3.78247 31.4561 1.36597 31.067C3.78247 30.6779 5.67618 28.8376 6.07653 26.4891C6.47688 28.8376 8.37059 30.6779 10.7871 31.067C8.37059 31.4561 6.47702 33.2964 6.07653 35.6449Z" fill="#FDB62F"/>
<path d="M69.1631 41.2413C68.1963 39.6597 66.1188 39.1 64.4525 39.971L47.7417 46.9064C47.4473 47.0277 47.1304 47.0907 46.8113 47.0896H26.0965C24.7952 47.0896 23.7412 46.0652 23.7412 44.8006C23.7412 43.5359 24.7952 42.5116 26.0965 42.5116H35.5177C39.4203 42.5116 42.5836 39.4376 42.5836 35.6447H22.9875C19.7395 35.647 16.6682 37.0833 14.638 39.5474L7.25415 48.2339L15.5684 63.0433L47.565 55.5699C48.9476 55.2598 50.2853 54.7837 51.5454 54.1508L68.0325 45.9449C69.673 44.9437 70.1771 42.8458 69.1631 41.2413Z" fill="#FEC9A3"/>
<path d="M12.9187 58.3283L15.5685 63.0435L47.565 55.57C48.9476 55.2599 50.2854 54.7838 51.5455 54.1509L60.4603 49.6989C45.6455 54.1052 25.9789 56.8519 12.9187 58.3283Z" fill="#F7BB8F"/>
<path d="M1.36597 47.0896V67.6901H16.6754L20.2084 64.2566L6.07653 43.6561L1.36597 47.0896Z" fill="#4398D1"/>
<path d="M1.36597 67.6901H16.6754L20.2084 64.2566L17.6175 60.4798C12.3793 62.5811 6.93394 64.157 1.36597 65.1837V67.6901Z" fill="#3E8CC7"/>
<path d="M11.965 64.2624C13.2658 64.2624 14.3203 63.2376 14.3203 61.9734C14.3203 60.7093 13.2658 59.6844 11.965 59.6844C10.6641 59.6844 9.60962 60.7093 9.60962 61.9734C9.60962 63.2376 10.6641 64.2624 11.965 64.2624Z" fill="#D9D9D9"/>
<path d="M1.36613 68.8345H16.6756C16.9888 68.8368 17.2891 68.7166 17.5118 68.5026L21.0447 65.0691C21.4392 64.6824 21.4982 64.0792 21.186 63.6272L20.5972 62.7688L47.8362 56.6802C49.3118 56.3483 50.7403 55.8413 52.0875 55.1695L68.5746 46.9179C70.851 45.6887 71.6706 42.8985 70.4059 40.6863C69.141 38.474 66.27 37.6775 63.9935 38.9066L57.5635 41.5961L55.9149 38.3916C55.6687 37.9155 55.5392 37.3902 55.538 36.858V24.2001C55.5273 16.1773 49.4129 9.39751 41.2295 8.33771L45.94 1.97445C46.318 1.45938 46.1944 0.745251 45.6645 0.377879C45.4537 0.231388 45.1981 0.156997 44.9391 0.166161H26.0967C25.4466 0.16953 24.9214 0.683528 24.9249 1.31639C24.926 1.5521 25.0026 1.78214 25.1428 1.97445L29.8533 8.33771C21.651 9.37689 15.5107 16.1613 15.4978 24.2001V37.0983C14.8454 37.6122 14.2484 38.1925 13.7196 38.8264L8.51442 45.1553L7.0542 43.0265C6.87989 42.7575 6.59838 42.571 6.27694 42.5114C5.95661 42.4668 5.63156 42.5446 5.37016 42.729L0.659598 46.1625C0.359233 46.3811 0.185061 46.7256 0.188527 47.0896V67.6901C0.188527 68.3229 0.716037 68.8345 1.36613 68.8345ZM28.3813 2.45516H42.6545L38.4503 8.17747H32.5622L28.3813 2.45516ZM17.8532 24.2001C17.8532 16.6157 24.1807 10.4665 31.9849 10.4665H39.0508C46.855 10.4665 53.1825 16.6157 53.1825 24.2001V36.858C53.1848 37.7438 53.398 38.6182 53.8066 39.4102L55.3847 42.5117L47.2943 45.8535C47.1494 45.9142 46.9928 45.945 46.835 45.945H26.0967C25.4466 45.945 24.9191 45.4322 24.9191 44.8006C24.9191 44.1688 25.4467 43.6562 26.0967 43.6562H35.5178C40.0706 43.6562 43.7613 40.0693 43.7613 35.6448C43.7613 35.0131 43.2337 34.5004 42.5837 34.5004H41.0646C41.286 34.0095 41.4025 33.4796 41.4061 32.9439C41.4014 31.3416 40.3804 29.9076 38.8389 29.3387L36.6956 28.5605V24.2H37.4493C38.3337 24.2 39.0508 24.897 39.0508 25.7565V26.489H41.4061V25.7565C41.4003 23.6358 39.6314 21.9167 37.4493 21.9111H36.6956V19.6221H34.3402V21.9111H33.5865C31.4008 21.9042 29.6237 23.6198 29.6166 25.744C29.6108 27.3566 30.6411 28.8009 32.1969 29.3616L34.3402 30.1399V34.5004H33.5865C32.7021 34.5004 31.9849 33.8034 31.9849 32.9439V32.2114H29.6295V32.9439C29.633 33.4794 29.7496 34.0093 29.9711 34.5004H22.9877C21.2095 34.5004 19.4536 34.8918 17.8532 35.6448V24.2001ZM39.0508 32.9439C39.0508 33.8034 38.3336 34.5004 37.4493 34.5004H36.6956V30.9984L38.0145 31.4791C38.6363 31.7147 39.0473 32.295 39.0508 32.9439ZM34.3402 24.2001V27.7021L33.0213 27.2214C32.3995 26.9868 31.9885 26.4054 31.985 25.7565C31.985 24.897 32.7022 24.2 33.5867 24.2L34.3402 24.2001ZM15.5568 40.2227C17.3669 38.0391 20.1024 36.7755 22.9877 36.7893H41.2883C40.7289 39.4536 38.3158 41.3671 35.5178 41.3671H26.0967C24.1453 41.3671 22.5637 42.9042 22.5637 44.8006C22.5637 46.697 24.1453 48.234 26.0967 48.234H46.8114C47.2896 48.2351 47.7618 48.1413 48.2011 47.9594L65.0179 40.9781C66.1402 40.3303 67.5898 40.6885 68.2564 41.7793C68.923 42.8699 68.5545 44.2788 67.432 44.9266L51.0157 53.1325C49.8358 53.7185 48.5862 54.1602 47.2943 54.4486L19.2075 60.7318L9.89227 47.1467L15.5568 40.2227ZM2.54374 47.6618L5.7823 45.2928L18.7364 64.1079L16.1927 66.5456H2.54374V47.6618Z" fill="black"/>
<path d="M11.9648 58.5343C10.0134 58.5343 8.43188 60.0713 8.43188 61.9677C8.43188 63.8642 10.0134 65.4012 11.9648 65.4012C13.9162 65.4012 15.4978 63.8642 15.4978 61.9677C15.4977 60.0713 13.9161 58.5343 11.9648 58.5343ZM11.9648 63.1122C11.3147 63.1122 10.7872 62.5994 10.7872 61.9677C10.7872 61.336 11.3149 60.8233 11.9648 60.8233C12.6148 60.8233 13.1424 61.3361 13.1424 61.9677C13.1424 62.5994 12.6148 63.1122 11.9648 63.1122Z" fill="black"/>
<path d="M57.8932 3.41647C57.567 5.26708 56.076 6.71595 54.1717 7.03305C53.5216 7.03305 52.9941 7.54584 52.9941 8.17749C52.9941 8.80914 53.5218 9.32192 54.1717 9.32192C56.076 9.63889 57.5669 11.0879 57.8932 12.9385C57.8932 13.5703 58.4208 14.0829 59.0708 14.0829C59.7209 14.0829 60.2484 13.5702 60.2484 12.9385C60.5745 11.0879 62.0655 9.63903 63.9698 9.32192C64.6199 9.32192 65.1474 8.80914 65.1474 8.17749C65.1474 7.54584 64.6197 7.03305 63.9698 7.03305C62.0655 6.71608 60.5747 5.26708 60.2484 3.41647C60.2484 2.78468 59.7207 2.27203 59.0708 2.27203C58.4207 2.27203 57.8932 2.78468 57.8932 3.41647ZM60.7548 8.17749C60.0976 8.62154 59.5277 9.17543 59.0708 9.81409C58.6138 9.17543 58.0439 8.62154 57.3867 8.17749C58.0439 7.73343 58.6138 7.17954 59.0708 6.54089C59.5277 7.17954 60.0976 7.73343 60.7548 8.17749Z" fill="black"/>
<path d="M1.17761 32.2114C3.08186 32.5284 4.57272 33.9774 4.89902 35.828C4.89902 36.4598 5.42667 36.9724 6.07662 36.9724C6.72658 36.9724 7.25423 36.4596 7.25423 35.828C7.58039 33.9774 9.07139 32.5285 10.9756 32.2114C11.6257 32.2114 12.1532 31.6986 12.1532 31.067C12.1532 30.4353 11.6256 29.9225 10.9756 29.9225C9.07139 29.6055 7.58053 28.1565 7.25423 26.3059C7.25423 25.6741 6.72658 25.1615 6.07662 25.1615C5.42667 25.1615 4.89902 25.6743 4.89902 26.3059C4.57286 28.1565 3.08186 29.6054 1.17761 29.9225C0.52751 29.9225 0 30.4353 0 31.067C0 31.6986 0.527649 32.2114 1.17761 32.2114ZM6.07662 29.4304C6.53355 30.069 7.10349 30.6229 7.76066 31.067C7.10349 31.511 6.53355 32.0649 6.07662 32.7036C5.6197 32.0649 5.04976 31.511 4.39259 31.067C5.04976 30.6229 5.6197 30.069 6.07662 29.4304Z" fill="black"/>
</g>
<defs>
<clipPath id="clip0">
<rect width="71" height="69" fill="white"/>
</clipPath>
</defs>
</svg>
