<svg width="296" height="276" viewBox="0 0 296 276" fill="none" xmlns="http://www.w3.org/2000/svg">
<path d="M184.2 222.467C245.511 222.467 295.213 172.764 295.213 111.453C295.213 50.1424 245.511 0.440002 184.2 0.440002C122.889 0.440002 73.1867 50.1424 73.1867 111.453C73.1867 172.764 122.889 222.467 184.2 222.467Z" fill="#EAEAEA"/>
<path d="M270.444 246.6H146.223C137.874 246.6 131.107 239.832 131.107 231.484V198.97C131.107 190.622 137.875 183.855 146.223 183.855H270.443C278.792 183.855 285.559 190.623 285.559 198.97V231.484C285.56 239.832 278.792 246.6 270.444 246.6Z" fill="#004D84"/>
<path d="M270.444 251.427H146.223C135.226 251.427 126.28 242.48 126.28 231.484V198.97C126.28 187.974 135.226 179.028 146.223 179.028H270.443C281.439 179.028 290.385 187.974 290.385 198.97V231.484C290.387 242.48 281.44 251.427 270.444 251.427ZM146.223 188.68C140.55 188.68 135.933 193.297 135.933 198.969V231.483C135.933 237.155 140.55 241.772 146.223 241.772H270.443C276.115 241.772 280.732 237.155 280.732 231.483V198.969C280.732 193.297 276.115 188.68 270.443 188.68H146.223Z" fill="#002642"/>
<path d="M251.029 145.24H164.986C157.756 145.24 151.563 149.995 150.284 156.531L144.935 183.853H271.08L265.731 156.531C264.452 149.995 258.259 145.24 251.029 145.24Z" fill="#C1DBDC"/>
<path d="M271.08 188.68H144.934C143.492 188.68 142.125 188.034 141.208 186.922C140.291 185.807 139.921 184.341 140.197 182.925L145.547 155.603C147.272 146.803 155.445 140.413 164.985 140.413H251.029C260.569 140.413 268.743 146.803 270.467 155.603L275.817 182.925C276.094 184.342 275.723 185.808 274.806 186.922C273.889 188.034 272.522 188.68 271.08 188.68ZM150.797 179.027H265.216L260.992 157.46C260.154 153.175 255.963 150.067 251.028 150.067H164.984C160.049 150.067 155.859 153.175 155.019 157.46L150.797 179.027Z" fill="#002642"/>
<path d="M252.102 227.923C257.829 227.923 262.473 223.28 262.473 217.552C262.473 211.824 257.829 207.181 252.102 207.181C246.374 207.181 241.73 211.824 241.73 217.552C241.73 223.28 246.374 227.923 252.102 227.923Z" fill="white"/>
<path d="M162.219 227.923C167.947 227.923 172.591 223.28 172.591 217.552C172.591 211.824 167.947 207.181 162.219 207.181C156.491 207.181 151.848 211.824 151.848 217.552C151.848 223.28 156.491 227.923 162.219 227.923Z" fill="white"/>
<path d="M160.067 270.733C154.736 270.733 150.413 266.411 150.413 261.08V246.6H169.72V261.08C169.72 266.411 165.398 270.733 160.067 270.733Z" fill="#004D84"/>
<path d="M160.067 275.56C152.082 275.56 145.587 269.065 145.587 261.08V246.6C145.587 243.934 147.748 241.773 150.413 241.773H169.72C172.386 241.773 174.547 243.934 174.547 246.6V261.08C174.547 269.065 168.051 275.56 160.067 275.56ZM155.24 251.427V261.08C155.24 263.741 157.406 265.907 160.067 265.907C162.727 265.907 164.893 263.741 164.893 261.08V251.427H155.24Z" fill="#002642"/>
<path d="M261.427 270.733C256.096 270.733 251.773 266.411 251.773 261.08V246.6H271.08V261.08C271.08 266.411 266.758 270.733 261.427 270.733Z" fill="#004D84"/>
<path d="M261.427 275.56C253.442 275.56 246.947 269.065 246.947 261.08V246.6C246.947 243.934 249.108 241.773 251.773 241.773H271.08C273.746 241.773 275.907 243.934 275.907 246.6V261.08C275.907 269.065 269.411 275.56 261.427 275.56ZM256.6 251.427V261.08C256.6 263.741 258.766 265.907 261.427 265.907C264.087 265.907 266.253 263.741 266.253 261.08V251.427H256.6Z" fill="#002642"/>
<path d="M160.067 77.6666C157.401 77.6666 155.24 75.5055 155.24 72.84V63.1867C155.24 60.5211 157.401 58.36 160.067 58.36C162.732 58.36 164.893 60.5211 164.893 63.1867V72.84C164.893 75.5055 162.732 77.6666 160.067 77.6666Z" fill="#002642"/>
<path d="M160.067 106.627C157.401 106.627 155.24 104.466 155.24 101.8V92.1467C155.24 89.4811 157.401 87.32 160.067 87.32C162.732 87.32 164.893 89.4811 164.893 92.1467V101.8C164.893 104.466 162.732 106.627 160.067 106.627Z" fill="#002642"/>
<path d="M179.373 87.32H169.72C167.054 87.32 164.893 85.1589 164.893 82.4934C164.893 79.8278 167.054 77.6667 169.72 77.6667H179.373C182.039 77.6667 184.2 79.8278 184.2 82.4934C184.2 85.1589 182.039 87.32 179.373 87.32Z" fill="#002642"/>
<path d="M150.413 87.32H140.76C138.094 87.32 135.933 85.1589 135.933 82.4934C135.933 79.8278 138.094 77.6667 140.76 77.6667H150.413C153.079 77.6667 155.24 79.8278 155.24 82.4934C155.24 85.1589 153.079 87.32 150.413 87.32Z" fill="#002642"/>
<path d="M268.667 34.2267C259.352 34.2267 251.773 26.6476 251.773 17.3333C251.773 8.01908 259.352 0.440002 268.667 0.440002C277.981 0.440002 285.56 8.01908 285.56 17.3333C285.56 26.6476 277.981 34.2267 268.667 34.2267ZM268.667 10.0933C264.674 10.0933 261.427 13.3405 261.427 17.3333C261.427 21.3262 264.674 24.5733 268.667 24.5733C272.66 24.5733 275.907 21.3262 275.907 17.3333C275.907 13.3405 272.66 10.0933 268.667 10.0933Z" fill="#002642"/>
<path d="M259.94 92.896C262.79 92.896 265.1 90.5859 265.1 87.7363C265.1 84.8867 262.79 82.5766 259.94 82.5766C257.09 82.5766 254.78 84.8867 254.78 87.7363C254.78 90.5859 257.09 92.896 259.94 92.896Z" fill="#002642"/>
<path d="M100.66 25.3227C103.51 25.3227 105.82 23.0126 105.82 20.163C105.82 17.3133 103.51 15.0033 100.66 15.0033C97.8104 15.0033 95.5003 17.3133 95.5003 20.163C95.5003 23.0126 97.8104 25.3227 100.66 25.3227Z" fill="#002642"/>
<path d="M223 125.933H193.666L189.027 145.24H227.64L223 125.933Z" fill="#004D84"/>
<path d="M227.64 150.067H189.027C187.549 150.067 186.151 149.389 185.237 148.229C184.319 147.067 183.988 145.549 184.334 144.112L188.975 124.805C189.496 122.637 191.435 121.108 193.668 121.108H223C225.233 121.108 227.172 122.638 227.693 124.805L232.334 144.112C232.68 145.549 232.348 147.067 231.431 148.229C230.515 149.389 229.118 150.067 227.64 150.067ZM195.152 140.413H221.515L219.196 130.76H197.471L195.152 140.413Z" fill="#002642"/>
<path d="M85.3909 74.1046C85.3909 95.2587 47.9975 145.24 47.9975 145.24C47.9975 145.24 10.6041 95.2587 10.6041 74.1046C10.6041 52.9505 27.3454 35.8002 47.9975 35.8002C68.6496 35.8002 85.3909 52.9493 85.3909 74.1046Z" fill="#F53E28"/>
<path d="M47.9975 150.067C46.4771 150.067 45.0448 149.35 44.1326 148.131C40.2061 142.882 5.77866 96.2252 5.77866 74.1022C5.77866 50.32 24.7173 30.9735 47.9975 30.9735C71.2777 30.9735 90.2164 50.32 90.2164 74.1022C90.2164 96.2252 55.789 142.882 51.8625 148.131C50.9502 149.35 49.5179 150.067 47.9975 150.067ZM47.9975 40.6281C30.0411 40.6281 15.432 55.645 15.432 74.1034C15.432 88.3807 36.2723 120.588 47.9975 137.043C59.7227 120.585 80.563 88.371 80.563 74.1034C80.563 55.645 65.9539 40.6281 47.9975 40.6281Z" fill="#002642"/>
<path d="M47.9975 93.4933C58.451 93.4933 66.9253 84.8127 66.9253 74.1046C66.9253 63.3965 58.451 54.7159 47.9975 54.7159C37.544 54.7159 29.0697 63.3965 29.0697 74.1046C29.0697 84.8127 37.544 93.4933 47.9975 93.4933Z" fill="white"/>
<path d="M47.9975 98.3188C34.8991 98.3188 24.2431 87.4563 24.2431 74.1034C24.2431 60.7528 34.8979 49.8904 47.9975 49.8904C61.0971 49.8904 71.7519 60.7528 71.7519 74.1034C71.7519 87.4563 61.0959 98.3188 47.9975 98.3188ZM47.9975 59.5425C40.2229 59.5425 33.8964 66.073 33.8964 74.1022C33.8964 82.1313 40.2217 88.6642 47.9975 88.6642C55.7733 88.6642 62.0986 82.1313 62.0986 74.1022C62.0986 66.073 55.772 59.5425 47.9975 59.5425Z" fill="#002642"/>
<path d="M160.067 275.56H27.3333C12.6953 275.56 0.786667 263.651 0.786667 249.013C0.786667 234.375 12.6953 222.467 27.3333 222.467H90.08C99.3943 222.467 106.973 214.888 106.973 205.573C106.973 196.259 99.3943 188.68 90.08 188.68H29.7467C16.4408 188.68 5.61333 177.853 5.61333 164.547C5.61333 151.241 16.4408 140.413 29.7467 140.413H49.0533C51.7189 140.413 53.88 142.574 53.88 145.24C53.88 147.906 51.7189 150.067 49.0533 150.067H29.7467C21.7622 150.067 15.2667 156.562 15.2667 164.547C15.2667 172.531 21.7622 179.027 29.7467 179.027H90.08C104.718 179.027 116.627 190.935 116.627 205.573C116.627 220.211 104.718 232.12 90.08 232.12H27.3333C18.0191 232.12 10.44 239.699 10.44 249.013C10.44 258.328 18.0191 265.907 27.3333 265.907H160.067C162.732 265.907 164.893 268.068 164.893 270.733C164.893 273.399 162.732 275.56 160.067 275.56Z" fill="#002642"/>
</svg>
