<svg width="100%" height="100%" viewBox="0 0 362 362" fill="none" xmlns="http://www.w3.org/2000/svg">
<path d="M217.2 265.467C278.511 265.467 328.213 215.764 328.213 154.453C328.213 93.1424 278.511 43.44 217.2 43.44C155.889 43.44 106.187 93.1424 106.187 154.453C106.187 215.764 155.889 265.467 217.2 265.467Z" fill="#EAEAEA"/>
<path d="M303.444 289.6H179.223C170.874 289.6 164.107 282.832 164.107 274.484V241.97C164.107 233.622 170.875 226.855 179.223 226.855H303.443C311.792 226.855 318.559 233.623 318.559 241.97V274.484C318.56 282.832 311.792 289.6 303.444 289.6Z" fill="#004D84"/>
<path d="M303.444 294.427H179.223C168.226 294.427 159.28 285.48 159.28 274.484V241.97C159.28 230.974 168.226 222.028 179.223 222.028H303.443C314.439 222.028 323.385 230.974 323.385 241.97V274.484C323.387 285.48 314.44 294.427 303.444 294.427ZM179.223 231.68C173.55 231.68 168.933 236.297 168.933 241.969V274.483C168.933 280.155 173.55 284.772 179.223 284.772H303.443C309.115 284.772 313.732 280.155 313.732 274.483V241.969C313.732 236.297 309.115 231.68 303.443 231.68H179.223Z" fill="#002642"/>
<path d="M284.029 188.24H197.986C190.756 188.24 184.563 192.995 183.284 199.531L177.935 226.853H304.08L298.731 199.531C297.452 192.995 291.259 188.24 284.029 188.24Z" fill="#C1DBDC"/>
<path d="M304.08 231.68H177.934C176.492 231.68 175.125 231.034 174.208 229.922C173.291 228.807 172.921 227.341 173.197 225.925L178.547 198.603C180.272 189.803 188.445 183.413 197.985 183.413H284.029C293.569 183.413 301.743 189.803 303.467 198.603L308.817 225.925C309.094 227.342 308.723 228.808 307.806 229.922C306.889 231.034 305.522 231.68 304.08 231.68ZM183.797 222.027H298.216L293.992 200.46C293.154 196.175 288.963 193.067 284.028 193.067H197.984C193.049 193.067 188.859 196.175 188.019 200.46L183.797 222.027Z" fill="#002642"/>
<path d="M285.102 270.923C290.829 270.923 295.473 266.28 295.473 260.552C295.473 254.824 290.829 250.181 285.102 250.181C279.374 250.181 274.73 254.824 274.73 260.552C274.73 266.28 279.374 270.923 285.102 270.923Z" fill="white"/>
<path d="M195.219 270.923C200.947 270.923 205.591 266.28 205.591 260.552C205.591 254.824 200.947 250.181 195.219 250.181C189.491 250.181 184.848 254.824 184.848 260.552C184.848 266.28 189.491 270.923 195.219 270.923Z" fill="white"/>
<path d="M193.067 313.733C187.736 313.733 183.413 309.411 183.413 304.08V289.6H202.72V304.08C202.72 309.411 198.398 313.733 193.067 313.733Z" fill="#004D84"/>
<path d="M193.067 318.56C185.082 318.56 178.587 312.065 178.587 304.08V289.6C178.587 286.934 180.748 284.773 183.413 284.773H202.72C205.386 284.773 207.547 286.934 207.547 289.6V304.08C207.547 312.065 201.051 318.56 193.067 318.56ZM188.24 294.427V304.08C188.24 306.741 190.406 308.907 193.067 308.907C195.727 308.907 197.893 306.741 197.893 304.08V294.427H188.24Z" fill="#002642"/>
<path d="M294.427 313.733C289.096 313.733 284.773 309.411 284.773 304.08V289.6H304.08V304.08C304.08 309.411 299.758 313.733 294.427 313.733Z" fill="#004D84"/>
<path d="M294.427 318.56C286.442 318.56 279.947 312.065 279.947 304.08V289.6C279.947 286.934 282.108 284.773 284.773 284.773H304.08C306.746 284.773 308.907 286.934 308.907 289.6V304.08C308.907 312.065 302.411 318.56 294.427 318.56ZM289.6 294.427V304.08C289.6 306.741 291.766 308.907 294.427 308.907C297.087 308.907 299.253 306.741 299.253 304.08V294.427H289.6Z" fill="#002642"/>
<path d="M193.067 120.667C190.401 120.667 188.24 118.506 188.24 115.84V106.187C188.24 103.521 190.401 101.36 193.067 101.36C195.732 101.36 197.893 103.521 197.893 106.187V115.84C197.893 118.506 195.732 120.667 193.067 120.667Z" fill="#002642"/>
<path d="M193.067 149.627C190.401 149.627 188.24 147.466 188.24 144.8V135.147C188.24 132.481 190.401 130.32 193.067 130.32C195.732 130.32 197.893 132.481 197.893 135.147V144.8C197.893 147.466 195.732 149.627 193.067 149.627Z" fill="#002642"/>
<path d="M212.373 130.32H202.72C200.054 130.32 197.893 128.159 197.893 125.493C197.893 122.828 200.054 120.667 202.72 120.667H212.373C215.039 120.667 217.2 122.828 217.2 125.493C217.2 128.159 215.039 130.32 212.373 130.32Z" fill="#002642"/>
<path d="M183.413 130.32H173.76C171.094 130.32 168.933 128.159 168.933 125.493C168.933 122.828 171.094 120.667 173.76 120.667H183.413C186.079 120.667 188.24 122.828 188.24 125.493C188.24 128.159 186.079 130.32 183.413 130.32Z" fill="#002642"/>
<path d="M301.667 77.2267C292.352 77.2267 284.773 69.6476 284.773 60.3333C284.773 51.0191 292.352 43.44 301.667 43.44C310.981 43.44 318.56 51.0191 318.56 60.3333C318.56 69.6476 310.981 77.2267 301.667 77.2267ZM301.667 53.0933C297.674 53.0933 294.427 56.3405 294.427 60.3333C294.427 64.3262 297.674 67.5733 301.667 67.5733C305.66 67.5733 308.907 64.3262 308.907 60.3333C308.907 56.3405 305.66 53.0933 301.667 53.0933Z" fill="#002642"/>
<path d="M292.94 135.896C295.79 135.896 298.1 133.586 298.1 130.736C298.1 127.887 295.79 125.577 292.94 125.577C290.09 125.577 287.78 127.887 287.78 130.736C287.78 133.586 290.09 135.896 292.94 135.896Z" fill="#002642"/>
<path d="M133.66 68.3227C136.51 68.3227 138.82 66.0126 138.82 63.163C138.82 60.3133 136.51 58.0033 133.66 58.0033C130.81 58.0033 128.5 60.3133 128.5 63.163C128.5 66.0126 130.81 68.3227 133.66 68.3227Z" fill="#002642"/>
<path d="M256 168.933H226.666L222.027 188.24H260.64L256 168.933Z" fill="#004D84"/>
<path d="M260.64 193.067H222.027C220.549 193.067 219.151 192.389 218.237 191.229C217.319 190.067 216.988 188.549 217.334 187.112L221.975 167.805C222.496 165.637 224.435 164.108 226.668 164.108H256C258.233 164.108 260.172 165.638 260.693 167.805L265.334 187.112C265.68 188.549 265.348 190.067 264.431 191.229C263.515 192.389 262.118 193.067 260.64 193.067ZM228.152 183.413H254.515L252.196 173.76H230.471L228.152 183.413Z" fill="#002642"/>
<path d="M118.391 117.105C118.391 138.259 80.9975 188.24 80.9975 188.24C80.9975 188.24 43.6041 138.259 43.6041 117.105C43.6041 95.9505 60.3454 78.8002 80.9975 78.8002C101.65 78.8002 118.391 95.9493 118.391 117.105Z" fill="#F53E28"/>
<path d="M80.9975 193.067C79.4771 193.067 78.0448 192.35 77.1326 191.131C73.2061 185.882 38.7787 139.225 38.7787 117.102C38.7787 93.32 57.7173 73.9735 80.9975 73.9735C104.278 73.9735 123.216 93.32 123.216 117.102C123.216 139.225 88.789 185.882 84.8625 191.131C83.9502 192.35 82.5179 193.067 80.9975 193.067ZM80.9975 83.6281C63.0411 83.6281 48.432 98.645 48.432 117.103C48.432 131.381 69.2723 163.588 80.9975 180.043C92.7227 163.585 113.563 131.371 113.563 117.103C113.563 98.645 98.9539 83.6281 80.9975 83.6281Z" fill="#002642"/>
<path d="M80.9975 136.493C91.451 136.493 99.9253 127.813 99.9253 117.105C99.9253 106.396 91.451 97.7159 80.9975 97.7159C70.544 97.7159 62.0697 106.396 62.0697 117.105C62.0697 127.813 70.544 136.493 80.9975 136.493Z" fill="white"/>
<path d="M80.9975 141.319C67.8991 141.319 57.2431 130.456 57.2431 117.103C57.2431 103.753 67.8979 92.8904 80.9975 92.8904C94.0971 92.8904 104.752 103.753 104.752 117.103C104.752 130.456 94.0959 141.319 80.9975 141.319ZM80.9975 102.543C73.2229 102.543 66.8964 109.073 66.8964 117.102C66.8964 125.131 73.2217 131.664 80.9975 131.664C88.7733 131.664 95.0986 125.131 95.0986 117.102C95.0986 109.073 88.772 102.543 80.9975 102.543Z" fill="#002642"/>
<path d="M193.067 318.56H60.3333C45.6953 318.56 33.7867 306.651 33.7867 292.013C33.7867 277.375 45.6953 265.467 60.3333 265.467H123.08C132.394 265.467 139.973 257.888 139.973 248.573C139.973 239.259 132.394 231.68 123.08 231.68H62.7467C49.4408 231.68 38.6133 220.853 38.6133 207.547C38.6133 194.241 49.4408 183.413 62.7467 183.413H82.0533C84.7189 183.413 86.88 185.574 86.88 188.24C86.88 190.906 84.7189 193.067 82.0533 193.067H62.7467C54.7622 193.067 48.2667 199.562 48.2667 207.547C48.2667 215.531 54.7622 222.027 62.7467 222.027H123.08C137.718 222.027 149.627 233.935 149.627 248.573C149.627 263.211 137.718 275.12 123.08 275.12H60.3333C51.0191 275.12 43.44 282.699 43.44 292.013C43.44 301.328 51.0191 308.907 60.3333 308.907H193.067C195.732 308.907 197.893 311.068 197.893 313.733C197.893 316.399 195.732 318.56 193.067 318.56Z" fill="#002642"/>
</svg>
