<svg width="263" height="257" viewBox="0 0 263 257" fill="none" xmlns="http://www.w3.org/2000/svg">
<path d="M163.6 209.82C217.967 209.82 262.04 165.747 262.04 111.38C262.04 57.0131 217.967 12.94 163.6 12.94C109.233 12.94 65.1599 57.0131 65.1599 111.38C65.1599 165.747 109.233 209.82 163.6 209.82Z" fill="#EAEAEA"/>
<path d="M240.076 231.22H129.924C122.521 231.22 116.52 225.218 116.52 217.816V188.985C116.52 181.582 122.522 175.581 129.924 175.581H240.075C247.478 175.581 253.479 181.583 253.479 188.985V217.816C253.48 225.218 247.478 231.22 240.076 231.22Z" fill="#004D84"/>
<path d="M240.076 235.5H129.924C120.173 235.5 112.24 227.567 112.24 217.816V188.985C112.24 179.234 120.173 171.301 129.924 171.301H240.075C249.826 171.301 257.759 179.234 257.759 188.985V217.816C257.76 227.567 249.827 235.5 240.076 235.5ZM129.924 179.86C124.892 179.86 120.8 183.954 120.8 188.984V217.815C120.8 222.845 124.892 226.939 129.924 226.939H240.075C245.107 226.939 249.199 222.845 249.199 217.815V188.984C249.199 183.954 245.107 179.86 240.075 179.86H129.924Z" fill="#002642"/>
<path d="M222.86 141.34H146.562C140.151 141.34 134.66 145.557 133.526 151.352L128.782 175.58H240.64L235.897 151.352C234.763 145.557 229.271 141.34 222.86 141.34Z" fill="#C1DBDC"/>
<path d="M240.64 179.86H128.783C127.505 179.86 126.292 179.288 125.477 178.301C124.666 177.312 124.336 176.012 124.582 174.757L129.327 150.529C130.853 142.726 138.1 137.06 146.563 137.06H222.86C231.323 137.06 238.572 142.726 240.096 150.531L244.841 174.757C245.087 176.013 244.757 177.313 243.946 178.301C243.131 179.288 241.919 179.86 240.64 179.86ZM133.982 171.3H235.44L231.695 152.176C230.951 148.376 227.235 145.62 222.859 145.62H146.562C142.186 145.62 138.471 148.376 137.726 152.174L133.982 171.3Z" fill="#002642"/>
<path d="M223.811 214.658C228.89 214.658 233.008 210.541 233.008 205.462C233.008 200.383 228.89 196.265 223.811 196.265C218.732 196.265 214.614 200.383 214.614 205.462C214.614 210.541 218.732 214.658 223.811 214.658Z" fill="white"/>
<path d="M144.109 214.658C149.188 214.658 153.306 210.541 153.306 205.462C153.306 200.383 149.188 196.265 144.109 196.265C139.03 196.265 134.912 200.383 134.912 205.462C134.912 210.541 139.03 214.658 144.109 214.658Z" fill="white"/>
<path d="M142.2 252.62C137.473 252.62 133.64 248.787 133.64 244.06V231.22H150.76V244.06C150.76 248.787 146.927 252.62 142.2 252.62Z" fill="#004D84"/>
<path d="M142.2 256.9C135.12 256.9 129.36 251.14 129.36 244.06V231.22C129.36 228.856 131.274 226.94 133.64 226.94H150.76C153.126 226.94 155.04 228.856 155.04 231.22V244.06C155.04 251.14 149.28 256.9 142.2 256.9ZM137.92 235.5V244.06C137.92 246.419 139.838 248.34 142.2 248.34C144.561 248.34 146.48 246.419 146.48 244.06V235.5H137.92Z" fill="#002642"/>
<path d="M227.8 252.62C223.073 252.62 219.24 248.787 219.24 244.06V231.22H236.36V244.06C236.36 248.787 232.527 252.62 227.8 252.62Z" fill="#004D84"/>
<path d="M227.8 256.9C220.72 256.9 214.96 251.14 214.96 244.06V231.22C214.96 228.856 216.874 226.94 219.24 226.94H236.36C238.726 226.94 240.64 228.856 240.64 231.22V244.06C240.64 251.14 234.88 256.9 227.8 256.9ZM223.52 235.5V244.06C223.52 246.419 225.438 248.34 227.8 248.34C230.161 248.34 232.08 246.419 232.08 244.06V235.5H223.52Z" fill="#002642"/>
<path d="M26.64 17.22C24.2742 17.22 22.36 15.3036 22.36 12.94V4.37998C22.36 2.01635 24.2742 0.0999756 26.64 0.0999756C29.0058 0.0999756 30.92 2.01635 30.92 4.37998V12.94C30.92 15.3036 29.0058 17.22 26.64 17.22Z" fill="#002642"/>
<path d="M26.64 42.9C24.2742 42.9 22.36 40.9836 22.36 38.62V30.06C22.36 27.6963 24.2742 25.78 26.64 25.78C29.0058 25.78 30.92 27.6963 30.92 30.06V38.62C30.92 40.9836 29.0058 42.9 26.64 42.9Z" fill="#002642"/>
<path d="M43.7599 25.78H35.1999C32.8342 25.78 30.9199 23.8636 30.9199 21.5C30.9199 19.1363 32.8342 17.22 35.1999 17.22H43.7599C46.1257 17.22 48.0399 19.1363 48.0399 21.5C48.0399 23.8636 46.1257 25.78 43.7599 25.78Z" fill="#002642"/>
<path d="M18.08 25.78H9.51999C7.15422 25.78 5.23999 23.8636 5.23999 21.5C5.23999 19.1363 7.15422 17.22 9.51999 17.22H18.08C20.4458 17.22 22.36 19.1363 22.36 21.5C22.36 23.8636 20.4458 25.78 18.08 25.78Z" fill="#002642"/>
<path d="M204.26 34.34C196.001 34.34 189.28 27.6193 189.28 19.36C189.28 11.1006 196.001 4.37997 204.26 4.37997C212.519 4.37997 219.24 11.1006 219.24 19.36C219.24 27.6193 212.519 34.34 204.26 34.34ZM204.26 12.94C200.719 12.94 197.84 15.8193 197.84 19.36C197.84 22.9006 200.719 25.78 204.26 25.78C207.801 25.78 210.68 22.9006 210.68 19.36C210.68 15.8193 207.801 12.94 204.26 12.94Z" fill="#002642"/>
<path d="M50.18 141.34C41.9206 141.34 35.2 134.619 35.2 126.36C35.2 118.101 41.9206 111.38 50.18 111.38C58.4393 111.38 65.16 118.101 65.16 126.36C65.16 134.619 58.4393 141.34 50.18 141.34ZM50.18 119.94C46.6393 119.94 43.76 122.819 43.76 126.36C43.76 129.901 46.6393 132.78 50.18 132.78C53.7206 132.78 56.6 129.901 56.6 126.36C56.6 122.819 53.7206 119.94 50.18 119.94Z" fill="#002642"/>
<path d="M230.762 94.9245C233.289 94.9245 235.337 92.876 235.337 90.3491C235.337 87.8222 233.289 85.7738 230.762 85.7738C228.235 85.7738 226.186 87.8222 226.186 90.3491C226.186 92.876 228.235 94.9245 230.762 94.9245Z" fill="#002642"/>
<path d="M102.362 35.0045C104.889 35.0045 106.937 32.956 106.937 30.4291C106.937 27.9023 104.889 25.8538 102.362 25.8538C99.8348 25.8538 97.7864 27.9023 97.7864 30.4291C97.7864 32.956 99.8348 35.0045 102.362 35.0045Z" fill="#002642"/>
<path d="M198.006 124.22H171.994L167.88 141.34H202.12L198.006 124.22Z" fill="#004D84"/>
<path d="M202.12 145.62H167.88C166.567 145.62 165.33 145.019 164.519 143.99C163.708 142.96 163.412 141.616 163.717 140.342L167.83 123.222C168.294 121.297 170.016 119.941 171.993 119.941H198.007C199.984 119.941 201.706 121.298 202.17 123.222L206.283 140.342C206.588 141.616 206.292 142.96 205.481 143.99C204.67 145.019 203.433 145.62 202.12 145.62ZM173.309 137.06H196.691L194.634 128.5H175.366L173.309 137.06Z" fill="#002642"/>
<path d="M240.64 256.9H5.23996C2.87419 256.9 0.959961 254.984 0.959961 252.62C0.959961 250.256 2.87419 248.34 5.23996 248.34H240.64C243.006 248.34 244.92 250.256 244.92 252.62C244.92 254.984 243.006 256.9 240.64 256.9Z" fill="#002642"/>
<path d="M18.08 196.98H99.3999V252.62H18.08V196.98Z" fill="#81C4F4"/>
<path d="M99.3999 256.9H18.0799C15.7142 256.9 13.7999 254.984 13.7999 252.62V196.98C13.7999 194.616 15.7142 192.7 18.0799 192.7H99.3999C101.766 192.7 103.68 194.616 103.68 196.98V252.62C103.68 254.984 101.766 256.9 99.3999 256.9ZM22.3599 248.34H95.1199V201.26H22.3599V248.34Z" fill="#002642"/>
<path d="M78 201.26H39.48C37.1142 201.26 35.2 199.344 35.2 196.98V187.164C35.2 180.777 40.3948 175.58 46.7816 175.58H70.6983C77.0851 175.58 82.28 180.777 82.28 187.164V196.98C82.28 199.344 80.3657 201.26 78 201.26ZM43.76 192.7H73.72V187.164C73.72 185.496 72.3653 184.14 70.6983 184.14H46.7816C45.1135 184.14 43.76 185.497 43.76 187.164V192.7Z" fill="#002642"/>
<path d="M73.72 196.98H86.56V252.62H73.72V196.98Z" fill="#EFEFD2"/>
<path d="M86.5599 256.9H73.7199C71.3542 256.9 69.4399 254.984 69.4399 252.62V196.98C69.4399 194.616 71.3542 192.7 73.7199 192.7H86.5599C88.9257 192.7 90.8399 194.616 90.8399 196.98V252.62C90.8399 254.984 88.9257 256.9 86.5599 256.9ZM77.9999 248.34H82.2799V201.26H77.9999V248.34Z" fill="#002642"/>
<path d="M30.9199 196.98H43.7599V252.62H30.9199V196.98Z" fill="#EFEFD2"/>
<path d="M43.7599 256.9H30.9199C28.5541 256.9 26.6399 254.984 26.6399 252.62V196.98C26.6399 194.616 28.5541 192.7 30.9199 192.7H43.7599C46.1257 192.7 48.0399 194.616 48.0399 196.98V252.62C48.0399 254.984 46.1257 256.9 43.7599 256.9ZM35.1999 248.34H39.4799V201.26H35.1999V248.34Z" fill="#002642"/>
</svg>
