<svg width="245" height="237" viewBox="0 0 245 237" fill="none" xmlns="http://www.w3.org/2000/svg">
<path d="M107.599 194.858C158.409 194.858 199.599 153.668 199.599 102.858C199.599 52.0478 158.409 10.858 107.599 10.858C56.7888 10.858 15.599 52.0478 15.599 102.858C15.599 153.668 56.7888 194.858 107.599 194.858Z" fill="#EAEAEA"/>
<path d="M229.889 208.223H26.112C20.528 208.223 16.001 203.696 16.001 198.112C16.001 192.528 20.528 188.001 26.112 188.001H229.889C235.473 188.001 240 192.528 240 198.112C240 203.696 235.473 208.223 229.889 208.223Z" fill="#EDEBDC"/>
<path d="M229.889 212.222H26.112C18.331 212.222 12.001 205.892 12.001 198.111C12.001 190.33 18.331 184 26.112 184H229.889C237.67 184 244 190.33 244 198.111C244 205.892 237.67 212.222 229.889 212.222ZM26.112 192C22.743 192 20.001 194.742 20.001 198.111C20.001 201.48 22.743 204.222 26.112 204.222H229.889C233.258 204.222 236 201.48 236 198.111C236 194.742 233.258 192 229.889 192H26.112Z" fill="#002642"/>
<path d="M232 188H28V163.923C28 155.129 35.129 148 43.923 148H216.077C224.871 148 232 155.129 232 163.923V188Z" fill="#004D84"/>
<path d="M232 192H28C25.791 192 24 190.209 24 188V163.924C24 152.938 32.938 144 43.924 144H216.076C227.062 144 236 152.938 236 163.924V188C236 190.209 234.209 192 232 192ZM32 184H228V163.924C228 157.35 222.65 152 216.076 152H43.924C37.35 152 32 157.35 32 163.924V184Z" fill="#002642"/>
<path d="M34 28C26.281 28 20 21.719 20 14C20 6.281 26.281 0 34 0C41.719 0 48 6.281 48 14C48 21.719 41.719 28 34 28ZM34 8C30.691 8 28 10.691 28 14C28 17.309 30.691 20 34 20C37.309 20 40 17.309 40 14C40 10.691 37.309 8 34 8Z" fill="#002642"/>
<path d="M79.927 73.525C82.2886 73.525 84.203 71.6106 84.203 69.249C84.203 66.8874 82.2886 64.973 79.927 64.973C77.5654 64.973 75.651 66.8874 75.651 69.249C75.651 71.6106 77.5654 73.525 79.927 73.525Z" fill="#002642"/>
<path d="M239.927 105.525C242.289 105.525 244.203 103.611 244.203 101.249C244.203 98.8874 242.289 96.973 239.927 96.973C237.565 96.973 235.651 98.8874 235.651 101.249C235.651 103.611 237.565 105.525 239.927 105.525Z" fill="#002642"/>
<path d="M185.148 112H94.648C87.719 112 81.358 115.829 78.113 121.951L64.309 148H212.154L202.537 123.801C199.706 116.677 192.814 112 185.148 112Z" fill="#C1DBDC"/>
<path d="M212.155 152H64.309C62.907 152 61.606 151.266 60.881 150.062C60.158 148.859 60.117 147.367 60.774 146.126L74.579 120.077C78.526 112.628 86.216 107.999 94.647 107.999H185.147C194.51 107.999 202.795 113.622 206.254 122.323L215.871 146.522C216.361 147.752 216.209 149.147 215.465 150.245C214.719 151.344 213.481 152 212.155 152ZM70.956 144H206.261L198.822 125.277C196.582 119.642 191.215 116 185.148 116H94.648C89.187 116 84.207 118.998 81.65 123.824L70.956 144Z" fill="#002642"/>
<path d="M144 96H116.573L112.001 112H144V96Z" fill="#004D84"/>
<path d="M144 116H112C110.744 116 109.562 115.41 108.807 114.408C108.052 113.406 107.809 112.107 108.155 110.9L112.727 94.9C113.217 93.183 114.788 92 116.573 92H144.001C146.21 92 148.001 93.791 148.001 96V112C148 114.209 146.209 116 144 116ZM117.303 108H140V100H119.59L117.303 108Z" fill="#002642"/>
<path d="M128 192C125.791 192 124 190.209 124 188V112C124 109.791 125.791 108 128 108C130.209 108 132 109.791 132 112V188C132 190.209 130.209 192 128 192Z" fill="#002642"/>
<path d="M112 164.531H107.232C105.023 164.531 103.232 162.74 103.232 160.531C103.232 158.322 105.023 156.531 107.232 156.531H112C114.209 156.531 116 158.322 116 160.531C116 162.74 114.209 164.531 112 164.531Z" fill="#002642"/>
<path d="M65.925 232.069C80.412 232.069 92.156 220.325 92.156 205.838C92.156 191.351 80.412 179.607 65.925 179.607C51.438 179.607 39.694 191.351 39.694 205.838C39.694 220.325 51.438 232.069 65.925 232.069Z" fill="#004D84"/>
<path d="M65.924 236.068C49.254 236.068 35.694 222.507 35.694 205.838C35.694 189.169 49.255 175.608 65.924 175.608C82.593 175.608 96.154 189.169 96.154 205.838C96.154 222.507 82.594 236.068 65.924 236.068ZM65.924 183.607C53.666 183.607 43.694 193.58 43.694 205.837C43.694 218.094 53.667 228.067 65.924 228.067C78.181 228.067 88.154 218.094 88.154 205.837C88.154 193.58 78.182 183.607 65.924 183.607Z" fill="#002642"/>
<path d="M65.925 216.963C72.0692 216.963 77.05 211.982 77.05 205.838C77.05 199.694 72.0692 194.713 65.925 194.713C59.7808 194.713 54.8 199.694 54.8 205.838C54.8 211.982 59.7808 216.963 65.925 216.963Z" fill="#B5A19C"/>
<path d="M65.924 220.963C57.584 220.963 50.799 214.178 50.799 205.838C50.799 197.498 57.584 190.713 65.924 190.713C74.264 190.713 81.049 197.498 81.049 205.838C81.049 214.178 74.264 220.963 65.924 220.963ZM65.924 198.713C61.994 198.713 58.799 201.908 58.799 205.838C58.799 209.768 61.994 212.963 65.924 212.963C69.854 212.963 73.049 209.768 73.049 205.838C73.049 201.908 69.854 198.713 65.924 198.713Z" fill="#002642"/>
<path d="M191.462 232.069C205.949 232.069 217.693 220.325 217.693 205.838C217.693 191.351 205.949 179.607 191.462 179.607C176.975 179.607 165.231 191.351 165.231 205.838C165.231 220.325 176.975 232.069 191.462 232.069Z" fill="#004D84"/>
<path d="M191.461 236.068C174.791 236.068 161.231 222.507 161.231 205.838C161.231 189.169 174.792 175.608 191.461 175.608C208.13 175.608 221.693 189.169 221.693 205.838C221.693 222.507 208.131 236.068 191.461 236.068ZM191.461 183.607C179.203 183.607 169.231 193.58 169.231 205.837C169.231 218.094 179.204 228.067 191.461 228.067C203.721 228.067 213.693 218.094 213.693 205.837C213.693 193.58 203.721 183.607 191.461 183.607Z" fill="#002642"/>
<path d="M191.462 216.867C197.553 216.867 202.491 211.929 202.491 205.838C202.491 199.747 197.553 194.809 191.462 194.809C185.371 194.809 180.433 199.747 180.433 205.838C180.433 211.929 185.371 216.867 191.462 216.867Z" fill="#B5A19C"/>
<path d="M191.461 220.867C183.176 220.867 176.434 214.125 176.434 205.838C176.434 197.551 183.176 190.809 191.461 190.809C199.748 190.809 206.49 197.551 206.49 205.838C206.49 214.125 199.749 220.867 191.461 220.867ZM191.461 198.808C187.586 198.808 184.434 201.962 184.434 205.837C184.434 209.712 187.586 212.866 191.461 212.866C195.336 212.866 198.49 209.712 198.49 205.837C198.49 201.962 195.336 198.808 191.461 198.808Z" fill="#002642"/>
<path d="M216 28C213.791 28 212 26.209 212 24V16C212 13.791 213.791 12 216 12C218.209 12 220 13.791 220 16V24C220 26.209 218.209 28 216 28Z" fill="#002642"/>
<path d="M216 52C213.791 52 212 50.209 212 48V40C212 37.791 213.791 36 216 36C218.209 36 220 37.791 220 40V48C220 50.209 218.209 52 216 52Z" fill="#002642"/>
<path d="M208 36H200C197.791 36 196 34.209 196 32C196 29.791 197.791 28 200 28H208C210.209 28 212 29.791 212 32C212 34.209 210.209 36 208 36Z" fill="#002642"/>
<path d="M232 36H224C221.791 36 220 34.209 220 32C220 29.791 221.791 28 224 28H232C234.209 28 236 29.791 236 32C236 34.209 234.209 36 232 36Z" fill="#002642"/>
<path d="M20 92C17.791 92 16 90.209 16 88V80C16 77.791 17.791 76 20 76C22.209 76 24 77.791 24 80V88C24 90.209 22.209 92 20 92Z" fill="#002642"/>
<path d="M20 116C17.791 116 16 114.209 16 112V104C16 101.791 17.791 100 20 100C22.209 100 24 101.791 24 104V112C24 114.209 22.209 116 20 116Z" fill="#002642"/>
<path d="M12 100H4C1.791 100 0 98.209 0 96C0 93.791 1.791 92 4 92H12C14.209 92 16 93.791 16 96C16 98.209 14.209 100 12 100Z" fill="#002642"/>
<path d="M36 100H28C25.791 100 24 98.209 24 96C24 93.791 25.791 92 28 92H36C38.209 92 40 93.791 40 96C40 98.209 38.209 100 36 100Z" fill="#002642"/>
</svg>
