<svg width="385" height="385" viewBox="0 0 385 385" fill="none" xmlns="http://www.w3.org/2000/svg">
<path d="M162.361 298.944C227.567 298.944 280.428 246.083 280.428 180.877C280.428 115.67 227.567 62.8102 162.361 62.8102C97.1545 62.8102 44.2943 115.67 44.2943 180.877C44.2943 246.083 97.1545 298.944 162.361 298.944Z" fill="#EAEAEA"/>
<path d="M190.594 88.4769C180.688 88.4769 172.628 80.4162 172.628 70.5102C172.628 60.6041 180.688 52.5435 190.594 52.5435C200.5 52.5435 208.561 60.6041 208.561 70.5102C208.561 80.4162 200.5 88.4769 190.594 88.4769ZM190.594 62.8102C186.348 62.8102 182.894 66.2636 182.894 70.5102C182.894 74.7567 186.348 78.2102 190.594 78.2102C194.841 78.2102 198.294 74.7567 198.294 70.5102C198.294 66.2636 194.841 62.8102 190.594 62.8102Z" fill="#002642"/>
<path d="M121.716 55.9662C124.747 55.9662 127.204 53.5093 127.204 50.4786C127.204 47.4479 124.747 44.9911 121.716 44.9911C118.686 44.9911 116.229 47.4479 116.229 50.4786C116.229 53.5093 118.686 55.9662 121.716 55.9662Z" fill="#002642"/>
<path d="M64.8276 103.235C61.9927 103.235 59.6942 100.937 59.6942 98.1019V87.8352C59.6942 85.0003 61.9927 82.7019 64.8276 82.7019C67.6625 82.7019 69.9609 85.0003 69.9609 87.8352V98.1019C69.9609 100.937 67.6625 103.235 64.8276 103.235Z" fill="#002642"/>
<path d="M64.8276 134.035C61.9927 134.035 59.6942 131.737 59.6942 128.902V118.635C59.6942 115.8 61.9927 113.502 64.8276 113.502C67.6625 113.502 69.9609 115.8 69.9609 118.635V128.902C69.9609 131.737 67.6625 134.035 64.8276 134.035Z" fill="#002642"/>
<path d="M54.5609 114.144H44.2943C41.4594 114.144 39.1609 111.845 39.1609 109.01C39.1609 106.175 41.4594 103.877 44.2943 103.877H54.5609C57.3958 103.877 59.6943 106.175 59.6943 109.01C59.6943 111.845 57.3958 114.144 54.5609 114.144Z" fill="#002642"/>
<path d="M85.3609 114.144H75.0943C72.2594 114.144 69.9609 111.845 69.9609 109.01C69.9609 106.175 72.2594 103.877 75.0943 103.877H85.3609C88.1958 103.877 90.4943 106.175 90.4943 109.01C90.4943 111.845 88.1958 114.144 85.3609 114.144Z" fill="#002642"/>
<path d="M309.095 293.81H92.6271C80.1095 293.81 69.9609 283.662 69.9609 271.144V224.076C69.9609 211.559 80.1095 201.41 92.6271 201.41H309.095C321.612 201.41 331.761 211.559 331.761 224.076V271.144C331.761 283.662 321.614 293.81 309.095 293.81Z" fill="#004D84"/>
<path d="M309.095 298.944H92.6271C77.2977 298.944 64.8276 286.473 64.8276 271.144V224.076C64.8276 208.747 77.2977 196.277 92.6271 196.277H309.095C324.424 196.277 336.894 208.747 336.894 224.076V271.144C336.894 286.473 324.424 298.944 309.095 298.944ZM92.6271 206.544C82.9598 206.544 75.0942 214.409 75.0942 224.076V271.144C75.0942 280.811 82.9598 288.677 92.6271 288.677H309.095C318.762 288.677 326.628 280.811 326.628 271.144V224.076C326.628 214.409 318.762 206.544 309.095 206.544H92.6271Z" fill="#002642"/>
<path d="M300.961 201.338H100.761L110.303 146.441C112 136.674 120.477 129.544 130.391 129.544H271.331C281.245 129.544 289.723 136.674 291.419 146.441L300.961 201.338Z" fill="#C1DBDC"/>
<path d="M300.961 206.473H100.761C99.244 206.473 97.808 205.804 96.8327 204.643C95.8573 203.485 95.4441 201.953 95.702 200.459L105.245 145.562C107.375 133.305 117.95 124.41 130.391 124.41H271.331C283.771 124.41 294.347 133.306 296.477 145.562L306.02 200.459C306.278 201.953 305.865 203.484 304.889 204.643C303.914 205.803 302.478 206.473 300.961 206.473ZM106.864 196.206H294.857L286.36 147.322C285.087 139.995 278.768 134.676 271.331 134.676H130.391C122.954 134.676 116.634 139.995 115.361 147.322L106.864 196.206Z" fill="#002642"/>
<path d="M292.766 334.877H283.491C276.13 334.877 270.161 328.909 270.161 321.547V293.81H306.094V321.547C306.094 328.908 300.127 334.877 292.766 334.877Z" fill="#004D84"/>
<path d="M292.766 340.01H283.491C273.309 340.01 265.028 331.729 265.028 321.547V293.81C265.028 290.975 267.326 288.677 270.161 288.677H306.094C308.929 288.677 311.228 290.975 311.228 293.81V321.547C311.228 331.728 302.946 340.01 292.766 340.01ZM275.294 298.944V321.547C275.294 326.065 278.971 329.744 283.491 329.744H292.766C297.284 329.744 300.962 326.067 300.962 321.547V298.944H275.294Z" fill="#002642"/>
<path d="M118.232 334.877H108.958C101.596 334.877 95.6276 328.909 95.6276 321.547V293.81H131.561V321.547C131.561 328.908 125.593 334.877 118.232 334.877Z" fill="#004D84"/>
<path d="M118.232 340.01H108.958C98.7756 340.01 90.4943 331.729 90.4943 321.547V293.81C90.4943 290.975 92.7927 288.677 95.6276 288.677H131.561C134.396 288.677 136.694 290.975 136.694 293.81V321.547C136.694 331.728 128.413 340.01 118.232 340.01ZM100.761 298.944V321.547C100.761 326.065 104.438 329.744 108.958 329.744H118.232C122.751 329.744 126.429 326.067 126.429 321.547V298.944H100.761Z" fill="#002642"/>
<path d="M249.598 293.81H151.849C146.163 293.81 141.553 289.2 141.553 283.514V257.652C141.553 251.966 146.163 247.356 151.849 247.356H249.598C255.285 247.356 259.894 251.966 259.894 257.652V283.514C259.894 289.199 255.285 293.81 249.598 293.81Z" fill="white"/>
<path d="M249.598 298.944H151.849C143.342 298.944 136.42 292.02 136.42 283.514V257.652C136.42 249.145 143.343 242.223 151.849 242.223H249.598C258.105 242.223 265.028 249.146 265.028 257.652V283.514C265.028 292.02 258.105 298.944 249.598 298.944ZM151.849 252.487C149.001 252.487 146.686 254.803 146.686 257.65V283.511C146.686 286.359 149.003 288.674 151.849 288.674H249.598C252.446 288.674 254.761 286.358 254.761 283.511V257.65C254.761 254.802 252.445 252.487 249.598 252.487H151.849Z" fill="#002642"/>
<path d="M293.261 263.01C303.184 263.01 311.228 254.966 311.228 245.044C311.228 235.121 303.184 227.077 293.261 227.077C283.338 227.077 275.294 235.121 275.294 245.044C275.294 254.966 283.338 263.01 293.261 263.01Z" fill="white"/>
<path d="M293.261 268.143C280.523 268.143 270.161 257.782 270.161 245.044C270.161 232.305 280.523 221.944 293.261 221.944C305.999 221.944 316.361 232.305 316.361 245.044C316.361 257.782 305.999 268.143 293.261 268.143ZM293.261 232.21C286.185 232.21 280.428 237.967 280.428 245.044C280.428 252.12 286.185 257.877 293.261 257.877C300.337 257.877 306.094 252.12 306.094 245.044C306.094 237.967 300.337 232.21 293.261 232.21Z" fill="#002642"/>
<path d="M108.461 263.01C118.384 263.01 126.428 254.966 126.428 245.044C126.428 235.121 118.384 227.077 108.461 227.077C98.5382 227.077 90.4943 235.121 90.4943 245.044C90.4943 254.966 98.5382 263.01 108.461 263.01Z" fill="white"/>
<path d="M108.461 268.143C95.7226 268.143 85.3609 257.782 85.3609 245.044C85.3609 232.305 95.7226 221.944 108.461 221.944C121.199 221.944 131.561 232.305 131.561 245.044C131.561 257.782 121.199 268.143 108.461 268.143ZM108.461 232.21C101.385 232.21 95.6276 237.967 95.6276 245.044C95.6276 252.12 101.385 257.877 108.461 257.877C115.537 257.877 121.294 252.12 121.294 245.044C121.294 237.967 115.537 232.21 108.461 232.21Z" fill="#002642"/>
<path d="M259.894 268.144H141.84C139.006 268.144 136.707 265.845 136.707 263.01C136.707 260.175 139.006 257.877 141.84 257.877H259.894C262.729 257.877 265.028 260.175 265.028 263.01C265.028 265.845 262.729 268.144 259.894 268.144Z" fill="#002642"/>
<path d="M259.894 283.544H141.84C139.006 283.544 136.707 281.245 136.707 278.41C136.707 275.575 139.006 273.277 141.84 273.277H259.894C262.729 273.277 265.028 275.575 265.028 278.41C265.028 281.245 262.729 283.544 259.894 283.544Z" fill="#002642"/>
<path d="M167.494 180.877H234.228V201.41H167.494V180.877Z" fill="#004D84"/>
<path d="M234.228 206.544H167.494C164.659 206.544 162.361 204.245 162.361 201.41V180.877C162.361 178.042 164.659 175.743 167.494 175.743H234.228C237.062 175.743 239.361 178.042 239.361 180.877V201.41C239.361 204.245 237.062 206.544 234.228 206.544ZM172.628 196.277H229.094V186.01H172.628V196.277Z" fill="#002642"/>
<path d="M309.391 121.903C307.161 121.903 305.105 120.433 304.458 118.183C301.544 108.027 290.901 102.132 280.748 105.052C278.024 105.839 275.179 104.258 274.397 101.533C273.616 98.809 275.192 95.9664 277.916 95.1823C293.521 90.7137 309.854 99.7561 314.328 115.352C315.11 118.077 313.534 120.92 310.809 121.704C310.336 121.838 309.86 121.903 309.391 121.903Z" fill="#002642"/>
<path d="M325.525 117.271C323.295 117.271 321.239 115.804 320.595 113.552C315.12 94.4995 295.181 83.4513 276.117 88.9158C273.39 89.7127 270.547 88.1265 269.768 85.3994C268.984 82.6749 270.56 79.8323 273.285 79.0508C285.143 75.6397 297.633 77.0603 308.431 83.0432C319.232 89.0235 327.055 98.8539 330.461 110.72C331.245 113.444 329.669 116.287 326.945 117.068C326.47 117.206 325.994 117.271 325.525 117.271Z" fill="#002642"/>
<path d="M340.702 112.913C338.471 112.913 336.416 111.446 335.771 109.194C327.898 81.7727 299.204 65.8684 271.76 73.739C269.03 74.5411 266.193 72.9498 265.411 70.2227C264.627 67.4982 266.203 64.6556 268.928 63.8741C301.798 54.4249 336.205 73.4991 345.636 106.361C346.42 109.086 344.845 111.928 342.12 112.71C341.646 112.847 341.17 112.913 340.702 112.913Z" fill="#002642"/>
</svg>
