<svg width="307" height="297" viewBox="0 0 307 297" fill="none" xmlns="http://www.w3.org/2000/svg">
<path d="M123.361 254.944C188.567 254.944 241.428 202.083 241.428 136.877C241.428 71.6704 188.567 18.8102 123.361 18.8102C58.1545 18.8102 5.29425 71.6704 5.29425 136.877C5.29425 202.083 58.1545 254.944 123.361 254.944Z" fill="#EAEAEA"/>
<path d="M151.594 44.4769C141.688 44.4769 133.628 36.4162 133.628 26.5102C133.628 16.6041 141.688 8.54352 151.594 8.54352C161.5 8.54352 169.561 16.6041 169.561 26.5102C169.561 36.4162 161.5 44.4769 151.594 44.4769ZM151.594 18.8102C147.348 18.8102 143.894 22.2636 143.894 26.5102C143.894 30.7567 147.348 34.2102 151.594 34.2102C155.841 34.2102 159.294 30.7567 159.294 26.5102C159.294 22.2636 155.841 18.8102 151.594 18.8102Z" fill="#002642"/>
<path d="M82.7165 11.9662C85.7472 11.9662 88.204 9.50931 88.204 6.47863C88.204 3.44795 85.7472 0.991096 82.7165 0.991096C79.6858 0.991096 77.2289 3.44795 77.2289 6.47863C77.2289 9.50931 79.6858 11.9662 82.7165 11.9662Z" fill="#002642"/>
<path d="M25.8276 59.2352C22.9927 59.2352 20.6942 56.9367 20.6942 54.1019V43.8352C20.6942 41.0003 22.9927 38.7019 25.8276 38.7019C28.6625 38.7019 30.9609 41.0003 30.9609 43.8352V54.1019C30.9609 56.9367 28.6625 59.2352 25.8276 59.2352Z" fill="#002642"/>
<path d="M25.8276 90.0352C22.9927 90.0352 20.6942 87.7367 20.6942 84.9019V74.6352C20.6942 71.8003 22.9927 69.5018 25.8276 69.5018C28.6625 69.5018 30.9609 71.8003 30.9609 74.6352V84.9019C30.9609 87.7367 28.6625 90.0352 25.8276 90.0352Z" fill="#002642"/>
<path d="M15.5609 70.1435H5.29425C2.45937 70.1435 0.160919 67.8451 0.160919 65.0102C0.160919 62.1753 2.45937 59.8768 5.29425 59.8768H15.5609C18.3958 59.8768 20.6943 62.1753 20.6943 65.0102C20.6943 67.8451 18.3958 70.1435 15.5609 70.1435Z" fill="#002642"/>
<path d="M46.3609 70.1435H36.0943C33.2594 70.1435 30.9609 67.8451 30.9609 65.0102C30.9609 62.1753 33.2594 59.8768 36.0943 59.8768H46.3609C49.1958 59.8768 51.4943 62.1753 51.4943 65.0102C51.4943 67.8451 49.1958 70.1435 46.3609 70.1435Z" fill="#002642"/>
<path d="M270.095 249.81H53.6271C41.1095 249.81 30.9609 239.662 30.9609 227.144V180.076C30.9609 167.559 41.1095 157.41 53.6271 157.41H270.095C282.612 157.41 292.761 167.559 292.761 180.076V227.144C292.761 239.662 282.614 249.81 270.095 249.81Z" fill="#004D84"/>
<path d="M270.095 254.944H53.6271C38.2977 254.944 25.8276 242.473 25.8276 227.144V180.076C25.8276 164.747 38.2977 152.277 53.6271 152.277H270.095C285.424 152.277 297.894 164.747 297.894 180.076V227.144C297.894 242.473 285.424 254.944 270.095 254.944ZM53.6271 162.544C43.9598 162.544 36.0942 170.409 36.0942 180.076V227.144C36.0942 236.811 43.9598 244.677 53.6271 244.677H270.095C279.762 244.677 287.628 236.811 287.628 227.144V180.076C287.628 170.409 279.762 162.544 270.095 162.544H53.6271Z" fill="#002642"/>
<path d="M261.961 157.338H61.761L71.3025 102.441C73.0004 92.6737 81.4768 85.5435 91.3906 85.5435H232.331C242.245 85.5435 250.723 92.6737 252.419 102.441L261.961 157.338Z" fill="#C1DBDC"/>
<path d="M261.961 162.473H61.7609C60.244 162.473 58.808 161.804 57.8327 160.643C56.8573 159.485 56.4441 157.953 56.702 156.459L66.2449 101.562C68.3752 89.305 78.9499 80.4102 91.3905 80.4102H232.331C244.771 80.4102 255.347 89.3063 257.477 101.562L267.02 156.459C267.278 157.953 266.865 159.484 265.889 160.643C264.914 161.803 263.478 162.473 261.961 162.473ZM67.8645 152.206H255.857L247.36 103.322C246.087 95.995 239.768 90.6756 232.331 90.6756H91.3905C83.9536 90.6756 77.6345 95.995 76.3614 103.322L67.8645 152.206Z" fill="#002642"/>
<path d="M253.766 290.877H244.491C237.13 290.877 231.161 284.909 231.161 277.547V249.81H267.094V277.547C267.094 284.908 261.127 290.877 253.766 290.877Z" fill="#004D84"/>
<path d="M253.766 296.01H244.491C234.309 296.01 226.028 287.729 226.028 277.547V249.81C226.028 246.975 228.326 244.677 231.161 244.677H267.094C269.929 244.677 272.228 246.975 272.228 249.81V277.547C272.228 287.728 263.946 296.01 253.766 296.01ZM236.294 254.944V277.547C236.294 282.065 239.971 285.744 244.491 285.744H253.766C258.284 285.744 261.962 282.067 261.962 277.547V254.944H236.294Z" fill="#002642"/>
<path d="M79.2322 290.877H69.9576C62.5964 290.877 56.6276 284.909 56.6276 277.547V249.81H92.5609V277.547C92.5609 284.908 86.5934 290.877 79.2322 290.877Z" fill="#004D84"/>
<path d="M79.2322 296.01H69.9576C59.7756 296.01 51.4943 287.729 51.4943 277.547V249.81C51.4943 246.975 53.7927 244.677 56.6276 244.677H92.5609C95.3958 244.677 97.6943 246.975 97.6943 249.81V277.547C97.6943 287.728 89.4129 296.01 79.2322 296.01ZM61.7609 254.944V277.547C61.7609 282.065 65.4377 285.744 69.9576 285.744H79.2322C83.7509 285.744 87.4289 282.067 87.4289 277.547V254.944H61.7609Z" fill="#002642"/>
<path d="M210.598 249.81H112.849C107.163 249.81 102.553 245.2 102.553 239.514V213.652C102.553 207.966 107.163 203.356 112.849 203.356H210.598C216.285 203.356 220.894 207.966 220.894 213.652V239.514C220.894 245.199 216.285 249.81 210.598 249.81Z" fill="white"/>
<path d="M210.598 254.944H112.849C104.342 254.944 97.4196 248.02 97.4196 239.514V213.652C97.4196 205.145 104.343 198.223 112.849 198.223H210.598C219.105 198.223 226.028 205.146 226.028 213.652V239.514C226.028 248.02 219.105 254.944 210.598 254.944ZM112.849 208.487C110.001 208.487 107.686 210.803 107.686 213.65V239.511C107.686 242.359 110.003 244.674 112.849 244.674H210.598C213.446 244.674 215.761 242.358 215.761 239.511V213.65C215.761 210.802 213.445 208.487 210.598 208.487H112.849Z" fill="#002642"/>
<path d="M254.261 219.01C264.184 219.01 272.228 210.966 272.228 201.044C272.228 191.121 264.184 183.077 254.261 183.077C244.338 183.077 236.294 191.121 236.294 201.044C236.294 210.966 244.338 219.01 254.261 219.01Z" fill="white"/>
<path d="M254.261 224.143C241.523 224.143 231.161 213.782 231.161 201.044C231.161 188.305 241.523 177.944 254.261 177.944C266.999 177.944 277.361 188.305 277.361 201.044C277.361 213.782 266.999 224.143 254.261 224.143ZM254.261 188.21C247.185 188.21 241.428 193.967 241.428 201.044C241.428 208.12 247.185 213.877 254.261 213.877C261.337 213.877 267.094 208.12 267.094 201.044C267.094 193.967 261.337 188.21 254.261 188.21Z" fill="#002642"/>
<path d="M69.4609 219.01C79.3836 219.01 87.4276 210.966 87.4276 201.044C87.4276 191.121 79.3836 183.077 69.4609 183.077C59.5382 183.077 51.4943 191.121 51.4943 201.044C51.4943 210.966 59.5382 219.01 69.4609 219.01Z" fill="white"/>
<path d="M69.4609 224.143C56.7226 224.143 46.3609 213.782 46.3609 201.044C46.3609 188.305 56.7226 177.944 69.4609 177.944C82.1993 177.944 92.5609 188.305 92.5609 201.044C92.5609 213.782 82.1993 224.143 69.4609 224.143ZM69.4609 188.21C62.3846 188.21 56.6276 193.967 56.6276 201.044C56.6276 208.12 62.3846 213.877 69.4609 213.877C76.5372 213.877 82.2943 208.12 82.2943 201.044C82.2943 193.967 76.5372 188.21 69.4609 188.21Z" fill="#002642"/>
<path d="M220.894 224.144H102.84C100.006 224.144 97.7071 221.845 97.7071 219.01C97.7071 216.175 100.006 213.877 102.84 213.877H220.894C223.729 213.877 226.028 216.175 226.028 219.01C226.028 221.845 223.729 224.144 220.894 224.144Z" fill="#002642"/>
<path d="M220.894 239.544H102.84C100.006 239.544 97.7071 237.245 97.7071 234.41C97.7071 231.575 100.006 229.277 102.84 229.277H220.894C223.729 229.277 226.028 231.575 226.028 234.41C226.028 237.245 223.729 239.544 220.894 239.544Z" fill="#002642"/>
<path d="M128.494 136.877H195.228V157.41H128.494V136.877Z" fill="#004D84"/>
<path d="M195.228 162.544H128.494C125.659 162.544 123.361 160.245 123.361 157.41V136.877C123.361 134.042 125.659 131.743 128.494 131.743H195.228C198.062 131.743 200.361 134.042 200.361 136.877V157.41C200.361 160.245 198.062 162.544 195.228 162.544ZM133.628 152.277H190.094V142.01H133.628V152.277Z" fill="#002642"/>
<path d="M270.391 77.9025C268.161 77.9025 266.105 76.4331 265.458 74.1834C262.544 64.0272 251.901 58.1315 241.748 61.0524C239.024 61.8391 236.179 60.258 235.397 57.5335C234.616 54.809 236.192 51.9664 238.916 51.1823C254.521 46.7137 270.854 55.7561 275.328 71.3524C276.11 74.0769 274.534 76.9195 271.809 77.7036C271.336 77.8384 270.86 77.9025 270.391 77.9025Z" fill="#002642"/>
<path d="M286.525 73.271C284.295 73.271 282.239 71.8042 281.595 69.5519C276.12 50.4995 256.181 39.4513 237.117 44.9158C234.39 45.7127 231.547 44.1265 230.768 41.3994C229.984 38.6749 231.56 35.8323 234.285 35.0508C246.143 31.6397 258.633 33.0603 269.431 39.0432C280.232 45.0235 288.055 54.8539 291.461 66.7196C292.245 69.4441 290.669 72.2867 287.945 73.0682C287.47 73.2056 286.994 73.271 286.525 73.271Z" fill="#002642"/>
<path d="M301.702 68.9128C299.471 68.9128 297.416 67.4459 296.771 65.1937C288.898 37.7727 260.204 21.8684 232.76 29.739C230.03 30.5411 227.193 28.9498 226.411 26.2227C225.627 23.4982 227.203 20.6556 229.928 19.8741C262.798 10.4249 297.205 29.4991 306.636 62.3614C307.42 65.0859 305.845 67.9285 303.12 68.71C302.646 68.8473 302.17 68.9128 301.702 68.9128Z" fill="#002642"/>
</svg>
