<svg width="246" height="238" viewBox="0 0 246 238" fill="none" xmlns="http://www.w3.org/2000/svg">
<path d="M108.497 195.824C159.307 195.824 200.497 154.634 200.497 103.824C200.497 53.0138 159.307 11.824 108.497 11.824C57.6868 11.824 16.497 53.0138 16.497 103.824C16.497 154.634 57.6868 195.824 108.497 195.824Z" fill="#EAEAEA"/>
<path d="M230.787 209.189H27.01C21.426 209.189 16.899 204.662 16.899 199.078C16.899 193.494 21.426 188.967 27.01 188.967H230.787C236.371 188.967 240.898 193.494 240.898 199.078C240.898 204.662 236.371 209.189 230.787 209.189Z" fill="#EDEBDC"/>
<path d="M230.787 213.188H27.01C19.229 213.188 12.899 206.858 12.899 199.077C12.899 191.296 19.229 184.966 27.01 184.966H230.787C238.568 184.966 244.898 191.296 244.898 199.077C244.898 206.858 238.568 213.188 230.787 213.188ZM27.01 192.966C23.641 192.966 20.899 195.708 20.899 199.077C20.899 202.446 23.641 205.188 27.01 205.188H230.787C234.156 205.188 236.898 202.446 236.898 199.077C236.898 195.708 234.156 192.966 230.787 192.966H27.01Z" fill="#002642"/>
<path d="M232.898 188.966H28.898V164.889C28.898 156.095 36.027 148.966 44.821 148.966H216.975C225.769 148.966 232.898 156.095 232.898 164.889V188.966Z" fill="#004D84"/>
<path d="M232.898 192.966H28.898C26.689 192.966 24.898 191.175 24.898 188.966V164.89C24.898 153.904 33.836 144.966 44.822 144.966H216.974C227.96 144.966 236.898 153.904 236.898 164.89V188.966C236.898 191.175 235.107 192.966 232.898 192.966ZM32.898 184.966H228.898V164.89C228.898 158.316 223.548 152.966 216.974 152.966H44.822C38.248 152.966 32.898 158.316 32.898 164.89V184.966Z" fill="#002642"/>
<path d="M34.898 28.966C27.179 28.966 20.898 22.685 20.898 14.966C20.898 7.247 27.179 0.965996 34.898 0.965996C42.617 0.965996 48.898 7.247 48.898 14.966C48.898 22.685 42.617 28.966 34.898 28.966ZM34.898 8.966C31.589 8.966 28.898 11.657 28.898 14.966C28.898 18.275 31.589 20.966 34.898 20.966C38.207 20.966 40.898 18.275 40.898 14.966C40.898 11.657 38.207 8.966 34.898 8.966Z" fill="#002642"/>
<path d="M80.825 74.491C83.1866 74.491 85.101 72.5766 85.101 70.215C85.101 67.8534 83.1866 65.939 80.825 65.939C78.4634 65.939 76.549 67.8534 76.549 70.215C76.549 72.5766 78.4634 74.491 80.825 74.491Z" fill="#002642"/>
<path d="M240.825 106.491C243.187 106.491 245.101 104.577 245.101 102.215C245.101 99.8534 243.187 97.939 240.825 97.939C238.463 97.939 236.549 99.8534 236.549 102.215C236.549 104.577 238.463 106.491 240.825 106.491Z" fill="#002642"/>
<path d="M186.046 112.966H95.546C88.617 112.966 82.256 116.795 79.011 122.917L65.207 148.966H213.052L203.435 124.767C200.604 117.643 193.712 112.966 186.046 112.966Z" fill="#C1DBDC"/>
<path d="M213.053 152.966H65.207C63.805 152.966 62.504 152.232 61.779 151.028C61.056 149.825 61.015 148.333 61.672 147.092L75.477 121.043C79.424 113.594 87.114 108.965 95.545 108.965H186.045C195.408 108.965 203.693 114.588 207.152 123.289L216.769 147.488C217.259 148.718 217.107 150.113 216.363 151.211C215.617 152.31 214.379 152.966 213.053 152.966ZM71.854 144.966H207.159L199.72 126.243C197.48 120.608 192.113 116.966 186.046 116.966H95.546C90.085 116.966 85.105 119.964 82.548 124.79L71.854 144.966Z" fill="#002642"/>
<path d="M144.898 96.966H117.471L112.899 112.966H144.898V96.966Z" fill="#004D84"/>
<path d="M144.898 116.966H112.898C111.642 116.966 110.46 116.376 109.705 115.374C108.95 114.372 108.707 113.073 109.053 111.866L113.625 95.866C114.115 94.149 115.686 92.966 117.471 92.966H144.899C147.108 92.966 148.899 94.757 148.899 96.966V112.966C148.898 115.175 147.107 116.966 144.898 116.966ZM118.201 108.966H140.898V100.966H120.488L118.201 108.966Z" fill="#002642"/>
<path d="M128.898 192.966C126.689 192.966 124.898 191.175 124.898 188.966V112.966C124.898 110.757 126.689 108.966 128.898 108.966C131.107 108.966 132.898 110.757 132.898 112.966V188.966C132.898 191.175 131.107 192.966 128.898 192.966Z" fill="#002642"/>
<path d="M112.898 165.497H108.13C105.921 165.497 104.13 163.706 104.13 161.497C104.13 159.288 105.921 157.497 108.13 157.497H112.898C115.107 157.497 116.898 159.288 116.898 161.497C116.898 163.706 115.107 165.497 112.898 165.497Z" fill="#002642"/>
<path d="M66.823 233.035C81.31 233.035 93.054 221.291 93.054 206.804C93.054 192.317 81.31 180.573 66.823 180.573C52.336 180.573 40.592 192.317 40.592 206.804C40.592 221.291 52.336 233.035 66.823 233.035Z" fill="#004D84"/>
<path d="M66.822 237.034C50.152 237.034 36.592 223.473 36.592 206.804C36.592 190.135 50.153 176.574 66.822 176.574C83.491 176.574 97.052 190.135 97.052 206.804C97.052 223.473 83.492 237.034 66.822 237.034ZM66.822 184.573C54.564 184.573 44.592 194.546 44.592 206.803C44.592 219.06 54.565 229.033 66.822 229.033C79.079 229.033 89.052 219.06 89.052 206.803C89.052 194.546 79.08 184.573 66.822 184.573Z" fill="#002642"/>
<path d="M66.823 217.929C72.9672 217.929 77.948 212.948 77.948 206.804C77.948 200.66 72.9672 195.679 66.823 195.679C60.6788 195.679 55.698 200.66 55.698 206.804C55.698 212.948 60.6788 217.929 66.823 217.929Z" fill="#B5A19C"/>
<path d="M66.822 221.929C58.482 221.929 51.697 215.144 51.697 206.804C51.697 198.464 58.482 191.679 66.822 191.679C75.162 191.679 81.947 198.464 81.947 206.804C81.947 215.144 75.162 221.929 66.822 221.929ZM66.822 199.679C62.892 199.679 59.697 202.874 59.697 206.804C59.697 210.734 62.892 213.929 66.822 213.929C70.752 213.929 73.947 210.734 73.947 206.804C73.947 202.874 70.752 199.679 66.822 199.679Z" fill="#002642"/>
<path d="M192.36 233.035C206.847 233.035 218.591 221.291 218.591 206.804C218.591 192.317 206.847 180.573 192.36 180.573C177.873 180.573 166.129 192.317 166.129 206.804C166.129 221.291 177.873 233.035 192.36 233.035Z" fill="#004D84"/>
<path d="M192.359 237.034C175.689 237.034 162.129 223.473 162.129 206.804C162.129 190.135 175.69 176.574 192.359 176.574C209.028 176.574 222.591 190.135 222.591 206.804C222.591 223.473 209.029 237.034 192.359 237.034ZM192.359 184.573C180.101 184.573 170.129 194.546 170.129 206.803C170.129 219.06 180.102 229.033 192.359 229.033C204.619 229.033 214.591 219.06 214.591 206.803C214.591 194.546 204.619 184.573 192.359 184.573Z" fill="#002642"/>
<path d="M192.36 217.833C198.451 217.833 203.389 212.895 203.389 206.804C203.389 200.713 198.451 195.775 192.36 195.775C186.269 195.775 181.331 200.713 181.331 206.804C181.331 212.895 186.269 217.833 192.36 217.833Z" fill="#B5A19C"/>
<path d="M192.359 221.833C184.074 221.833 177.332 215.091 177.332 206.804C177.332 198.517 184.074 191.775 192.359 191.775C200.646 191.775 207.388 198.517 207.388 206.804C207.388 215.091 200.647 221.833 192.359 221.833ZM192.359 199.774C188.484 199.774 185.332 202.928 185.332 206.803C185.332 210.678 188.484 213.832 192.359 213.832C196.234 213.832 199.388 210.678 199.388 206.803C199.388 202.928 196.234 199.774 192.359 199.774Z" fill="#002642"/>
<path d="M216.898 28.966C214.689 28.966 212.898 27.175 212.898 24.966V16.966C212.898 14.757 214.689 12.966 216.898 12.966C219.107 12.966 220.898 14.757 220.898 16.966V24.966C220.898 27.175 219.107 28.966 216.898 28.966Z" fill="#002642"/>
<path d="M216.898 52.966C214.689 52.966 212.898 51.175 212.898 48.966V40.966C212.898 38.757 214.689 36.966 216.898 36.966C219.107 36.966 220.898 38.757 220.898 40.966V48.966C220.898 51.175 219.107 52.966 216.898 52.966Z" fill="#002642"/>
<path d="M208.898 36.966H200.898C198.689 36.966 196.898 35.175 196.898 32.966C196.898 30.757 198.689 28.966 200.898 28.966H208.898C211.107 28.966 212.898 30.757 212.898 32.966C212.898 35.175 211.107 36.966 208.898 36.966Z" fill="#002642"/>
<path d="M232.898 36.966H224.898C222.689 36.966 220.898 35.175 220.898 32.966C220.898 30.757 222.689 28.966 224.898 28.966H232.898C235.107 28.966 236.898 30.757 236.898 32.966C236.898 35.175 235.107 36.966 232.898 36.966Z" fill="#002642"/>
<path d="M20.898 92.966C18.689 92.966 16.898 91.175 16.898 88.966V80.966C16.898 78.757 18.689 76.966 20.898 76.966C23.107 76.966 24.898 78.757 24.898 80.966V88.966C24.898 91.175 23.107 92.966 20.898 92.966Z" fill="#002642"/>
<path d="M20.898 116.966C18.689 116.966 16.898 115.175 16.898 112.966V104.966C16.898 102.757 18.689 100.966 20.898 100.966C23.107 100.966 24.898 102.757 24.898 104.966V112.966C24.898 115.175 23.107 116.966 20.898 116.966Z" fill="#002642"/>
<path d="M12.898 100.966H4.89801C2.68901 100.966 0.89801 99.175 0.89801 96.966C0.89801 94.757 2.68901 92.966 4.89801 92.966H12.898C15.107 92.966 16.898 94.757 16.898 96.966C16.898 99.175 15.107 100.966 12.898 100.966Z" fill="#002642"/>
<path d="M36.898 100.966H28.898C26.689 100.966 24.898 99.175 24.898 96.966C24.898 94.757 26.689 92.966 28.898 92.966H36.898C39.107 92.966 40.898 94.757 40.898 96.966C40.898 99.175 39.107 100.966 36.898 100.966Z" fill="#002642"/>
</svg>
