<svg width="73" height="71" viewBox="0 0 73 71" fill="none" xmlns="http://www.w3.org/2000/svg">
<path d="M38.5751 40.2147H18.8028C10.3665 40.2147 3.52759 46.8664 3.52759 55.0715V56.7827C3.52759 57.5146 4.13768 58.108 4.89021 58.108H52.4879C53.2405 58.108 53.8505 57.5146 53.8505 56.7827V55.0715C53.8504 46.8664 47.0115 40.2147 38.5751 40.2147Z" fill="#8C9BA6"/>
<path d="M32.1352 9.57391H25.443C20.9344 9.57391 17.2795 13.1286 17.2795 17.5137V23.0534H40.2986V17.5137C40.2988 13.1286 36.6438 9.57391 32.1352 9.57391Z" fill="#A64C31"/>
<path d="M32.1462 9.57391H27.8745C32.3771 9.57391 36.0271 13.1241 36.0271 17.5032V23.0534H40.2988V17.5032C40.2988 13.1239 36.6488 9.57391 32.1462 9.57391Z" fill="#8A3E25"/>
<path d="M31.9617 44.3288H25.4161C22.9222 44.3288 20.9006 42.3626 20.9006 39.9371V32.0366H36.4771V39.9371C36.4771 42.3626 34.4555 44.3288 31.9617 44.3288Z" fill="#FFCBBE"/>
<path d="M29.9272 32.0366V38.4497C29.9272 40.872 27.9083 42.8356 25.4178 42.8356H22.022C22.8484 43.7506 24.0596 44.3288 25.4101 44.3288H31.9677C34.4581 44.3288 36.4771 42.3653 36.4771 39.9429V32.0366H29.9272Z" fill="#FDAD9D"/>
<path d="M35.5302 15.0775H22.0483C19.4147 15.0775 17.2798 17.154 17.2798 19.7155V24.6033C17.1591 24.5951 17.0338 24.5947 16.9028 24.604C15.0292 24.7382 13.5801 25.7697 13.7438 27.9317C13.9075 30.0937 15.622 32.5675 17.4956 32.4333C17.5933 32.4262 17.6865 32.4137 17.7772 32.3978C19.2125 36.9896 23.599 40.3317 28.7894 40.3317C35.1459 40.3317 40.2989 35.3199 40.2989 29.1376V19.7154C40.2989 17.154 38.1637 15.0775 35.5302 15.0775Z" fill="#FFCBBE"/>
<path d="M35.5301 15.0775H33.5453C33.6174 15.3983 33.6566 15.7311 33.6566 16.0729V25.4951C33.6566 31.6775 28.5037 36.6892 22.1471 36.6892C21.461 36.6892 20.7902 36.6275 20.1372 36.5156C22.2467 38.8538 25.3396 40.3317 28.7893 40.3317C35.1458 40.3317 40.2988 35.32 40.2988 29.1376V19.7154C40.2986 17.154 38.1636 15.0775 35.5301 15.0775Z" fill="#FDAD9D"/>
<path d="M37.3022 41.3687C37.4659 43.5307 36.9308 45.3312 35.0571 45.4653C33.1835 45.5994 31.469 43.1257 31.3053 40.9638C31.1417 38.8018 32.5907 37.7703 34.4643 37.6361C36.3379 37.5018 37.1385 39.2067 37.3022 41.3687Z" fill="#FFCBBE"/>
<path d="M55.1989 41.3687C55.0353 43.5307 55.5704 45.3313 57.444 45.4654C59.3176 45.5996 61.0321 43.1257 61.1958 40.9638C61.3595 38.8018 59.9104 37.7703 58.0368 37.6361C56.1631 37.5018 55.3626 39.2067 55.1989 41.3687Z" fill="#F1B0A2"/>
<path d="M55.1989 41.3687C55.0353 43.5307 55.5704 45.3313 57.444 45.4654C59.3176 45.5996 61.0321 43.1257 61.1958 40.9638C61.3595 38.8018 59.9104 37.7703 58.0368 37.6361C56.1631 37.5018 55.3626 39.2067 55.1989 41.3687Z" fill="#FDAD9D"/>
<path d="M38.4624 41.1476H54.0388V54.3117H38.4624V41.1476Z" fill="#FFCBBE"/>
<path d="M50.373 41.1476H54.0387V54.3117H50.373V41.1476Z" fill="#FDAD9D"/>
<path d="M54.3256 19.7261C54.1568 19.6853 53.981 19.7644 53.9051 19.9168C53.0863 21.5618 51.3541 22.6966 49.3491 22.6966H41.4413C37.7961 22.6967 34.8413 25.5707 34.8413 29.116V38.6274C34.8413 44.6181 39.8347 49.4747 45.9942 49.4747H46.6667C52.8263 49.4747 57.8196 44.6181 57.8196 38.6274V31.4124C57.8196 30.411 58.069 29.428 58.5224 28.529C58.9403 27.7008 59.1753 26.7697 59.1753 25.7848C59.1753 22.8483 57.1266 20.4032 54.3256 19.7261Z" fill="#FCB143"/>
<path d="M54.3258 19.7262C54.157 19.6855 53.9812 19.7645 53.9053 19.9169C53.8657 19.9964 53.8222 20.0737 53.7784 20.1507C54.7075 21.2333 55.2647 22.6295 55.2647 24.1596C55.2647 25.1444 55.0297 26.0755 54.6118 26.9037C54.1582 27.8026 53.909 28.7858 53.909 29.7871V37.002C53.909 42.9927 48.9156 47.8493 42.7561 47.8493H42.0836C41.2789 47.8493 40.4944 47.7657 39.738 47.6081C41.5221 48.7862 43.6755 49.4745 45.9944 49.4745H46.6669C52.8264 49.4745 57.8198 44.618 57.8198 38.6272V31.4122C57.8198 30.4109 58.0692 29.4278 58.5226 28.5288C58.9403 27.7007 59.1754 26.7695 59.1754 25.7847C59.1754 22.8483 57.1267 20.4031 54.3258 19.7262Z" fill="#FBA615"/>
<path d="M54.1972 53.4474H38.3041C29.8677 53.4474 23.0288 60.0991 23.0288 68.3042V68.636C23.0288 69.368 23.6389 69.9613 24.3914 69.9613H68.1101C68.8627 69.9613 69.4728 69.368 69.4728 68.636V68.3042C69.4726 60.099 62.6336 53.4474 54.1972 53.4474Z" fill="#586B76"/>
<path d="M54.1971 53.4474H47.6846C56.1209 53.4474 62.9598 60.0991 62.9598 68.3042V68.6362C62.9598 69.3681 62.3497 69.9615 61.5972 69.9615H68.1098C68.8623 69.9615 69.4724 69.3681 69.4724 68.6362V68.3042C69.4725 60.099 62.6335 53.4474 54.1971 53.4474Z" fill="#465961"/>
<path d="M44.9105 13.1985C43.7136 12.0575 43.0051 10.474 43.0051 8.37174C43.0051 3.17016 47.3406 1.03864 52.6889 1.03864C58.0371 1.03864 62.3725 3.17016 62.3725 8.37174C62.3725 13.5733 58.037 15.6006 52.6889 15.6006C51.3556 15.6006 50.0854 15.4745 48.9295 15.2048L44.9904 17.2717C44.673 17.4382 44.2965 17.1809 44.3499 16.8341L44.9105 13.1985Z" fill="#E5ECF1"/>
<path d="M60.8625 3.93243C61.0628 4.60069 61.1696 5.34051 61.1696 6.1559C61.1696 11.3575 56.8341 13.3847 51.486 13.3847C50.3461 13.3847 49.2523 13.2926 48.2366 13.0973C47.8976 13.0321 47.5467 13.0833 47.2426 13.2429L44.698 14.578L44.3501 16.8339C44.2966 17.1807 44.6732 17.4381 44.9905 17.2716L48.9297 15.2047C50.0856 15.4744 51.3558 15.6004 52.6891 15.6004C58.0372 15.6004 62.3728 13.5732 62.3728 8.3716C62.3725 6.51395 61.8172 5.04971 60.8625 3.93243Z" fill="#D6E4EA"/>
<path d="M68.9326 61.4059C68.6769 60.8889 68.0383 60.6716 67.5071 60.9207C66.9758 61.1694 66.7523 61.7901 67.0083 62.307C67.9349 64.1788 68.4048 66.1899 68.4048 68.2845V68.6379C68.4048 68.795 68.2734 68.9227 68.112 68.9227H24.3895C24.228 68.9227 24.0967 68.795 24.0967 68.6379V68.2845C24.0967 60.676 30.4609 54.486 38.2839 54.486H54.2177C58.1656 54.486 61.832 56.0251 64.5414 58.8199C64.9462 59.2373 65.622 59.2566 66.051 58.863C66.48 58.4695 66.5 57.8122 66.0953 57.3948C63.1825 54.3903 59.3083 52.6478 55.107 52.432V47.2111C55.458 46.8844 55.7914 46.54 56.1006 46.175C56.479 46.3569 56.9008 46.468 57.3657 46.5013C57.4423 46.5067 57.5188 46.5095 57.5953 46.5095C58.7595 46.5095 59.8933 45.8756 60.8105 44.7052C61.6234 43.6678 62.1657 42.2976 62.2608 41.04C62.4317 38.785 61.1275 37.1479 58.8877 36.7034V31.4124C58.8877 30.5952 59.0929 29.7564 59.4813 28.9866C59.9869 27.9843 60.2432 26.9072 60.2432 25.7851C60.2434 22.4298 57.9159 19.5238 54.5833 18.7182C53.9284 18.5601 53.2388 18.8733 52.9441 19.4644C52.2707 20.8176 50.8932 21.6581 49.3493 21.6581H41.4414C41.4163 21.6581 41.3918 21.6597 41.3667 21.6599V17.5032C41.3667 12.5583 37.2304 8.53528 32.1462 8.53528H25.4323C20.3481 8.53528 16.2118 12.5583 16.2118 17.5032V23.6412C13.8741 24.0381 12.5041 25.6998 12.6789 28.0079C12.8703 30.537 14.72 33.2264 17.0214 33.4607C17.6503 35.0839 18.616 36.532 19.8329 37.7324V39.1759H18.2665C9.55056 39.1759 2.45972 46.0725 2.45972 54.5497V56.8291C2.45972 58.107 3.52848 59.1465 4.84234 59.1465H24.9434C23.0655 61.7322 21.9608 64.8851 21.9608 68.2844V68.6377C21.9608 69.9403 23.0503 70.9999 24.3895 70.9999H68.1118C69.4511 70.9999 70.5405 69.9403 70.5405 68.6377V68.2844C70.5405 65.8754 69.9996 63.561 68.9326 61.4059ZM33.3896 43.4461C32.8262 42.7269 32.4356 41.7466 32.3706 40.8874C32.2865 39.7765 32.7599 39.0761 33.778 38.7967C33.8072 40.8159 34.3553 42.7147 35.3005 44.3722C35.2036 44.4014 35.098 44.4211 34.9789 44.4297C34.494 44.4632 33.8996 44.0967 33.3896 43.4461ZM52.971 52.4087H39.5305V48.7077C41.4069 49.8501 43.622 50.5132 45.9944 50.5132H46.6668C48.9717 50.5132 51.1292 49.8888 52.971 48.8056V52.4087ZM60.1309 40.8874C60.0659 41.7465 59.6753 42.7269 59.1119 43.4459C58.6021 44.0964 58.0063 44.4643 57.5225 44.4294C57.456 44.4247 57.3969 44.4159 57.341 44.4057C58.29 42.7539 58.8442 40.8611 58.882 38.8469C59.7895 39.1543 60.2104 39.8366 60.1309 40.8874ZM49.3494 23.7352C51.4815 23.7352 53.4732 22.6327 54.5773 20.8836C56.6803 21.6138 58.1077 23.5611 58.1075 25.7849C58.1075 26.5872 57.9248 27.3565 57.5639 28.0715C57.0326 29.1244 56.7519 30.2797 56.7519 31.4124V38.6273C56.7519 44.0358 52.2279 48.436 46.6669 48.436H45.9945C40.4336 48.436 35.9095 44.0358 35.9095 38.6273V29.116C35.9095 26.1492 38.3913 23.7354 41.4416 23.7352H49.3494ZM25.4325 10.6126H32.1463C35.1351 10.6126 37.6955 12.4228 38.7346 14.9744C37.8141 14.3839 36.7131 14.039 35.5304 14.039H22.0484C20.8657 14.039 19.7647 14.3839 18.8442 14.9744C19.8833 12.4227 22.4438 10.6126 25.4325 10.6126ZM26.2725 41.1252C26.3443 41.1394 26.4158 41.1463 26.4863 41.1463C26.9836 41.1463 27.4287 40.8067 27.5317 40.3143C27.6491 39.7521 27.2759 39.2038 26.6979 39.0895C22.9421 38.3471 19.9153 35.6671 18.7989 32.0956C18.6413 31.5916 18.1206 31.2823 17.5874 31.3756C17.5254 31.3866 17.4696 31.3937 17.4172 31.3974C16.309 31.4805 14.9427 29.623 14.8088 27.8553C14.7059 26.4958 15.4368 25.7504 16.9807 25.6398C17.056 25.6344 17.1297 25.6342 17.206 25.6393C17.5009 25.6597 17.7919 25.5589 18.0083 25.3626C18.2247 25.1661 18.3476 24.8912 18.3476 24.6032V23.0533V19.7153C18.3476 17.7306 20.0078 16.1161 22.0482 16.1161H35.5302C37.5707 16.1161 39.2308 17.7307 39.2308 19.7153V21.9751C37.6714 22.4327 36.3207 23.3608 35.3528 24.5896C35.3534 24.572 35.3555 24.5548 35.3555 24.537C35.3555 23.6891 34.6487 23.0015 33.7767 23.0015C32.9049 23.0015 32.198 23.6889 32.198 24.537C32.198 25.385 32.9047 26.0726 33.7767 26.0726C34.0495 26.0726 34.3061 26.0053 34.53 25.8867C34.0452 26.8644 33.7733 27.9599 33.7733 29.1158V36.6744C31.436 37.0716 30.0656 38.732 30.2402 41.04C30.2964 41.7814 30.5088 42.5616 30.8396 43.2901H25.4098C23.5122 43.2901 21.9683 41.7885 21.9683 39.9428V39.4211C23.2606 40.2314 24.7142 40.8173 26.2725 41.1252ZM26.5493 57.0693H4.84234C4.70632 57.0693 4.59554 56.9616 4.59554 56.8293V54.5498C4.59554 47.2181 10.7283 41.2534 18.2665 41.2534H19.9984C20.6028 43.6133 22.7995 45.3675 25.4102 45.3675H31.9678C32.0728 45.3675 32.1784 45.3635 32.2838 45.3578C33.0767 46.1084 33.9816 46.5095 34.9061 46.5095C34.9825 46.5095 35.0591 46.5067 35.1358 46.5013C35.6445 46.4648 36.108 46.3354 36.5154 46.1188C36.7914 46.4484 37.0845 46.7639 37.3946 47.0629V52.4326C33.2371 52.6507 29.4881 54.3888 26.7264 57.0847C26.6686 57.0753 26.6097 57.0693 26.5493 57.0693Z" fill="black"/>
<path d="M23.8017 26.0727C24.6736 26.0727 25.3804 25.3852 25.3804 24.5372C25.3804 23.6891 24.6736 23.0016 23.8017 23.0016C22.9297 23.0016 22.2229 23.6891 22.2229 24.5372C22.2229 25.3852 22.9297 26.0727 23.8017 26.0727Z" fill="black"/>
<path d="M32.2552 31.8439C32.6002 31.3787 32.4919 30.7294 32.0135 30.394C31.535 30.0584 30.8676 30.1637 30.5227 30.629C30.1212 31.1706 29.4732 31.4939 28.7891 31.4939C28.105 31.4939 27.457 31.1707 27.0557 30.629C26.7108 30.1637 26.0435 30.0585 25.5649 30.3939C25.0864 30.7293 24.9782 31.3784 25.3231 31.8438C26.1248 32.9254 27.4205 33.5712 28.7891 33.5712C30.1577 33.5714 31.4533 32.9257 32.2552 31.8439Z" fill="black"/>
<path d="M43.2939 16.6803C43.2089 17.2323 43.4479 17.7745 43.9174 18.0954C44.1773 18.2729 44.4786 18.3629 44.7817 18.3629C45.0264 18.3629 45.2719 18.3043 45.4974 18.186L49.0857 16.3034C50.1867 16.5265 51.3965 16.6395 52.6889 16.6395C55.7347 16.6395 58.3099 16.0022 60.1361 14.7964C62.2978 13.3692 63.4405 11.1476 63.4405 8.37204C63.4405 3.12969 59.4212 0 52.6888 0C49.8881 0 47.4572 0.564256 45.6584 1.63175C45.155 1.93045 44.9958 2.56973 45.303 3.05938C45.6102 3.54917 46.2674 3.70379 46.7708 3.40509C48.2345 2.53645 50.2809 2.07744 52.6888 2.07744C55.9065 2.07744 61.3046 2.89519 61.3046 8.3719C61.3046 13.7579 55.9065 14.5621 52.6888 14.5621C51.4036 14.5621 50.2225 14.4385 49.1785 14.195C48.9229 14.1352 48.6535 14.1696 48.4224 14.2908L45.593 15.7755L45.9667 13.3527C46.0174 13.0232 45.9026 12.6901 45.6581 12.4569C44.6063 11.4543 44.0731 10.0799 44.0731 8.3719C44.0731 7.75051 44.1437 7.16545 44.283 6.63295C44.4282 6.07702 44.0829 5.51179 43.5112 5.37035C42.9404 5.2289 42.3583 5.5649 42.213 6.12098C42.0301 6.82071 41.9373 7.57814 41.9373 8.37204C41.9373 10.4507 42.5559 12.1879 43.7775 13.5442L43.2939 16.6803Z" fill="black"/>
</svg>
