<svg width="327" height="327" viewBox="0 0 327 327" fill="none" xmlns="http://www.w3.org/2000/svg">
<path d="M141.038 242.224C196.421 242.224 241.318 197.327 241.318 141.944C241.318 86.561 196.421 41.6642 141.038 41.6642C85.6553 41.6642 40.7584 86.561 40.7584 141.944C40.7584 197.327 85.6553 242.224 141.038 242.224Z" fill="#EAEAEA"/>
<path d="M61.6243 211.216H52.9043C50.4943 211.216 48.5443 209.264 48.5443 206.856C48.5443 204.448 50.4943 202.496 52.9043 202.496H61.6243C64.0342 202.496 65.9843 204.448 65.9843 206.856C65.9843 209.264 64.0332 211.216 61.6243 211.216Z" fill="#002642"/>
<path d="M87.7843 211.216H79.0643C76.6543 211.216 74.7043 209.264 74.7043 206.856C74.7043 204.448 76.6543 202.496 79.0643 202.496H87.7843C90.1943 202.496 92.1443 204.448 92.1443 206.856C92.1443 209.264 90.1932 211.216 87.7843 211.216Z" fill="#002642"/>
<path d="M70.3443 228.656C67.9343 228.656 65.9843 226.704 65.9843 224.296V215.576C65.9843 213.168 67.9343 211.216 70.3443 211.216C72.7543 211.216 74.7043 213.168 74.7043 215.576V224.296C74.7043 226.704 72.7532 228.656 70.3443 228.656Z" fill="#002642"/>
<path d="M70.3443 202.496C67.9343 202.496 65.9843 200.544 65.9843 198.136V189.416C65.9843 187.008 67.9343 185.056 70.3443 185.056C72.7543 185.056 74.7043 187.008 74.7043 189.416V198.136C74.7043 200.544 72.7532 202.496 70.3443 202.496Z" fill="#002642"/>
<path d="M257.824 58.6158H249.104C246.694 58.6158 244.744 56.6637 244.744 54.2558C244.744 51.848 246.694 49.8958 249.104 49.8958H257.824C260.234 49.8958 262.184 51.848 262.184 54.2558C262.184 56.6637 260.233 58.6158 257.824 58.6158Z" fill="#002642"/>
<path d="M283.984 58.6158H275.264C272.854 58.6158 270.904 56.6637 270.904 54.2558C270.904 51.848 272.854 49.8958 275.264 49.8958H283.984C286.394 49.8958 288.344 51.848 288.344 54.2558C288.344 56.6637 286.393 58.6158 283.984 58.6158Z" fill="#002642"/>
<path d="M266.544 76.0558C264.134 76.0558 262.184 74.1037 262.184 71.6958V62.9758C262.184 60.568 264.134 58.6158 266.544 58.6158C268.954 58.6158 270.904 60.568 270.904 62.9758V71.6958C270.904 74.1037 268.953 76.0558 266.544 76.0558Z" fill="#002642"/>
<path d="M266.544 49.8958C264.134 49.8958 262.184 47.9437 262.184 45.5358V36.8158C262.184 34.408 264.134 32.4558 266.544 32.4558C268.954 32.4558 270.904 34.408 270.904 36.8158V45.5358C270.904 47.9437 268.953 49.8958 266.544 49.8958Z" fill="#002642"/>
<path d="M59.4443 76.0558C51.0306 76.0558 44.1843 69.2095 44.1843 60.7958C44.1843 52.3821 51.0306 45.5358 59.4443 45.5358C67.858 45.5358 74.7043 52.3821 74.7043 60.7958C74.7043 69.2095 67.8569 76.0558 59.4443 76.0558ZM59.4443 54.2558C55.8375 54.2558 52.9043 57.189 52.9043 60.7958C52.9043 64.4026 55.8375 67.3358 59.4443 67.3358C63.0511 67.3358 65.9843 64.4026 65.9843 60.7958C65.9843 57.189 63.05 54.2558 59.4443 54.2558Z" fill="#002642"/>
<path d="M278.758 122.796C281.332 122.796 283.419 120.709 283.419 118.135C283.419 115.561 281.332 113.474 278.758 113.474C276.184 113.474 274.097 115.561 274.097 118.135C274.097 120.709 276.184 122.796 278.758 122.796Z" fill="#002642"/>
<path d="M43.3177 131.516C45.8918 131.516 47.9785 129.429 47.9785 126.855C47.9785 124.281 45.8918 122.194 43.3177 122.194C40.7436 122.194 38.6569 124.281 38.6569 126.855C38.6569 129.429 40.7436 131.516 43.3177 131.516Z" fill="#002642"/>
<path d="M219.595 290.184H117.292C110.626 290.184 105.223 284.781 105.223 278.116V79.8926C105.223 73.2273 110.626 67.8242 117.292 67.8242H219.595C226.26 67.8242 231.663 73.2273 231.663 79.8926V278.116C231.664 284.781 226.26 290.184 219.595 290.184Z" fill="#004D84"/>
<path d="M219.597 294.544H117.291C108.234 294.544 100.864 287.174 100.864 278.116V79.8927C100.864 70.8337 108.235 63.4642 117.291 63.4642H219.597C228.654 63.4642 236.023 70.8348 236.023 79.8927V278.115C236.024 287.174 228.654 294.544 219.597 294.544ZM117.291 72.1842C113.042 72.1842 109.584 75.6417 109.584 79.8927V278.115C109.584 282.366 113.042 285.823 117.291 285.823H219.597C223.846 285.823 227.303 282.366 227.303 278.115V79.8927C227.303 75.6417 223.846 72.1842 219.597 72.1842H117.291Z" fill="#002642"/>
<path d="M177.134 85.2642H161.623C159.213 85.2642 157.263 83.312 157.263 80.9042C157.263 78.4963 159.213 76.5442 161.623 76.5442H177.134C179.544 76.5442 181.494 78.4963 181.494 80.9042C181.494 83.312 179.544 85.2642 177.134 85.2642Z" fill="#002642"/>
<path d="M118.304 93.9842H218.584V242.224H118.304V93.9842Z" fill="#81C4F4"/>
<path d="M218.584 246.584H118.304C115.894 246.584 113.944 244.632 113.944 242.224V93.9841C113.944 91.5763 115.894 89.6241 118.304 89.6241H218.584C220.994 89.6241 222.944 91.5763 222.944 93.9841V242.224C222.944 244.632 220.993 246.584 218.584 246.584ZM122.664 237.864H214.224V98.3441H122.664V237.864Z" fill="#002642"/>
<path d="M169.378 277.104C175.398 277.104 180.278 272.224 180.278 266.204C180.278 260.184 175.398 255.304 169.378 255.304C163.358 255.304 158.478 260.184 158.478 266.204C158.478 272.224 163.358 277.104 169.378 277.104Z" fill="#626568"/>
<path d="M169.381 281.464C160.967 281.464 154.121 274.618 154.121 266.204C154.121 257.79 160.967 250.944 169.381 250.944C177.794 250.944 184.641 257.79 184.641 266.204C184.641 274.618 177.794 281.464 169.381 281.464ZM169.381 259.664C165.774 259.664 162.841 262.597 162.841 266.204C162.841 269.811 165.774 272.744 169.381 272.744C172.987 272.744 175.921 269.811 175.921 266.204C175.921 262.597 172.986 259.664 169.381 259.664Z" fill="#002642"/>
<path d="M190.244 224.296H146.644C143.032 224.296 140.104 221.368 140.104 217.756C140.104 214.144 143.032 211.216 146.644 211.216H190.244C193.857 211.216 196.784 214.144 196.784 217.756C196.784 221.368 193.855 224.296 190.244 224.296Z" fill="white"/>
<path d="M190.244 228.656H146.644C140.632 228.656 135.744 223.766 135.744 217.756C135.744 211.746 140.632 206.856 146.644 206.856H190.244C196.257 206.856 201.144 211.746 201.144 217.756C201.144 223.766 196.256 228.656 190.244 228.656ZM146.644 215.576C145.443 215.576 144.464 216.552 144.464 217.756C144.464 218.959 145.443 219.936 146.644 219.936H190.244C191.445 219.936 192.424 218.959 192.424 217.756C192.424 216.552 191.445 215.576 190.244 215.576H146.644Z" fill="#002642"/>
<path d="M135.744 158.896H157.544V180.696H135.744V158.896Z" fill="#002642"/>
<path d="M179.344 158.896H201.144V180.696H179.344V158.896Z" fill="#002642"/>
<path d="M157.544 137.096H179.344V158.896H157.544V137.096Z" fill="#002642"/>
</svg>
