<svg width="333" height="333" viewBox="0 0 333 333" fill="none" xmlns="http://www.w3.org/2000/svg">
<path d="M161.548 249.466C217.948 249.466 263.668 203.745 263.668 147.346C263.668 90.9465 217.948 45.2258 161.548 45.2258C105.149 45.2258 59.4283 90.9465 59.4283 147.346C59.4283 203.745 105.149 249.466 161.548 249.466Z" fill="#EAEAEA"/>
<path d="M113.342 128.911C104.774 128.911 97.8021 121.939 97.8021 113.371C97.8021 104.803 104.774 97.831 113.342 97.831C121.91 97.831 128.882 104.803 128.882 113.371C128.882 121.939 121.91 128.911 113.342 128.911ZM113.342 106.711C109.669 106.711 106.682 109.698 106.682 113.371C106.682 117.044 109.669 120.031 113.342 120.031C117.015 120.031 120.002 117.044 120.002 113.371C120.002 109.698 117.015 106.711 113.342 106.711Z" fill="#002642"/>
<path d="M288.475 123.406C291.096 123.406 293.221 121.281 293.221 118.66C293.221 116.039 291.096 113.914 288.475 113.914C285.853 113.914 283.728 116.039 283.728 118.66C283.728 121.281 285.853 123.406 288.475 123.406Z" fill="#002642"/>
<path d="M124.195 56.8065C126.816 56.8065 128.941 54.6815 128.941 52.0601C128.941 49.4388 126.816 47.3138 124.195 47.3138C121.573 47.3138 119.448 49.4388 119.448 52.0601C119.448 54.6815 121.573 56.8065 124.195 56.8065Z" fill="#002642"/>
<path d="M71.1621 151.111H270.962V288.751H71.1621V151.111Z" fill="white"/>
<path d="M270.962 293.191H71.1621C68.7079 293.191 66.7221 291.203 66.7221 288.751V151.111C66.7221 148.659 68.7079 146.671 71.1621 146.671H270.962C273.416 146.671 275.402 148.659 275.402 151.111V288.751C275.402 291.203 273.416 293.191 270.962 293.191ZM75.6021 284.311H266.522V155.551H75.6021V284.311Z" fill="#002642"/>
<path d="M171.062 173.311C162.494 173.311 155.522 166.339 155.522 157.771V117.811C155.522 109.243 162.494 102.271 171.062 102.271C179.63 102.271 186.602 109.243 186.602 117.811V133.351C186.602 135.803 184.616 137.791 182.162 137.791C179.708 137.791 177.722 135.803 177.722 133.351V117.811C177.722 114.138 174.735 111.151 171.062 111.151C167.389 111.151 164.402 114.138 164.402 117.811V157.771C164.402 161.444 167.389 164.431 171.062 164.431C174.735 164.431 177.722 161.444 177.722 157.771V151.111C177.722 148.659 179.708 146.671 182.162 146.671C184.616 146.671 186.602 148.659 186.602 151.111V157.771C186.602 166.338 179.63 173.311 171.062 173.311Z" fill="#002642"/>
<path d="M220.395 205.812C229.552 205.812 236.976 198.388 236.976 189.231C236.976 180.073 229.552 172.649 220.395 172.649C211.237 172.649 203.814 180.073 203.814 189.231C203.814 198.388 211.237 205.812 220.395 205.812Z" fill="white"/>
<path d="M220.396 210.253C208.802 210.253 199.372 200.822 199.372 189.231C199.372 177.641 208.802 168.209 220.396 168.209C231.986 168.209 241.417 177.64 241.417 189.231C241.417 200.822 231.987 210.253 220.396 210.253ZM220.396 177.089C213.702 177.089 208.252 182.535 208.252 189.231C208.252 195.926 213.702 201.373 220.396 201.373C227.091 201.373 232.537 195.925 232.537 189.231C232.537 182.536 227.092 177.089 220.396 177.089Z" fill="#002642"/>
<path d="M248.762 244.351H190.548V237.939C190.548 221.863 203.58 208.831 219.656 208.831C235.731 208.831 248.763 221.862 248.763 237.939V244.351H248.762Z" fill="#004D84"/>
<path d="M248.762 248.791H190.548C188.094 248.791 186.108 246.803 186.108 244.351V237.938C186.108 219.441 201.159 204.391 219.656 204.391C238.153 204.391 253.203 219.441 253.203 237.938V244.351C253.202 246.803 251.216 248.791 248.762 248.791V248.791ZM194.988 239.911H244.322V237.938C244.322 224.337 233.257 213.271 219.655 213.271C206.053 213.271 194.987 224.337 194.987 237.938V239.911H194.988Z" fill="#002642"/>
<path d="M128.882 195.511H97.8021C95.3479 195.511 93.3621 193.523 93.3621 191.071C93.3621 188.619 95.3479 186.631 97.8021 186.631H128.882C131.336 186.631 133.322 188.619 133.322 191.071C133.322 193.523 131.336 195.511 128.882 195.511Z" fill="#002642"/>
<path d="M173.282 222.151H93.3621C90.9078 222.151 88.9221 220.163 88.9221 217.711C88.9221 215.259 90.9078 213.271 93.3621 213.271H173.282C175.736 213.271 177.722 215.259 177.722 217.711C177.722 220.163 175.736 222.151 173.282 222.151Z" fill="#002642"/>
<path d="M159.962 248.791H93.3621C90.9078 248.791 88.9221 246.803 88.9221 244.351C88.9221 241.899 90.9078 239.911 93.3621 239.911H159.962C162.416 239.911 164.402 241.899 164.402 244.351C164.402 246.803 162.416 248.791 159.962 248.791Z" fill="#002642"/>
<path d="M71.1621 262.111H270.962V288.751H71.1621V262.111Z" fill="#81C4F4"/>
<path d="M270.962 293.191H71.1621C68.7079 293.191 66.7221 291.203 66.7221 288.751V262.111C66.7221 259.659 68.7079 257.671 71.1621 257.671H270.962C273.416 257.671 275.402 259.659 275.402 262.111V288.751C275.402 291.203 273.416 293.191 270.962 293.191ZM75.6021 284.311H266.522V266.551H75.6021V284.311Z" fill="#002642"/>
<path d="M62.282 98.1318C59.8278 98.1318 57.842 96.1438 57.842 93.6918V84.662C57.842 82.21 59.8278 80.222 62.282 80.222C64.7363 80.222 66.722 82.21 66.722 84.662V93.6918C66.722 96.1438 64.7363 98.1318 62.282 98.1318Z" fill="#002642"/>
<path d="M62.282 71.0389C59.8278 71.0389 57.842 69.0508 57.842 66.5989V57.569C57.842 55.117 59.8278 53.129 62.282 53.129C64.7363 53.129 66.722 55.117 66.722 57.569V66.5989C66.722 69.0508 64.7363 71.0389 62.282 71.0389Z" fill="#002642"/>
<path d="M80.3451 80.0709H71.313C68.8588 80.0709 66.873 78.0829 66.873 75.6309C66.873 73.179 68.8588 71.1909 71.313 71.1909H80.3451C82.7993 71.1909 84.7851 73.179 84.7851 75.6309C84.7851 78.0829 82.7993 80.0709 80.3451 80.0709Z" fill="#002642"/>
<path d="M53.25 80.0709H44.218C41.7637 80.0709 39.778 78.0829 39.778 75.6309C39.778 73.179 41.7637 71.1909 44.218 71.1909H53.25C55.7042 71.1909 57.69 73.179 57.69 75.6309C57.69 78.0829 55.7042 80.0709 53.25 80.0709Z" fill="#002642"/>
<path d="M257.642 84.8118C255.188 84.8118 253.202 82.8238 253.202 80.3718V71.342C253.202 68.89 255.188 66.902 257.642 66.902C260.096 66.902 262.082 68.89 262.082 71.342V80.3718C262.082 82.8238 260.096 84.8118 257.642 84.8118Z" fill="#002642"/>
<path d="M257.642 57.7189C255.188 57.7189 253.202 55.7309 253.202 53.2789V44.249C253.202 41.797 255.188 39.809 257.642 39.809C260.096 39.809 262.082 41.797 262.082 44.249V53.2789C262.082 55.7309 260.096 57.7189 257.642 57.7189Z" fill="#002642"/>
<path d="M275.705 66.751H266.673C264.219 66.751 262.233 64.763 262.233 62.311C262.233 59.859 264.219 57.871 266.673 57.871H275.705C278.159 57.871 280.145 59.859 280.145 62.311C280.145 64.763 278.159 66.751 275.705 66.751Z" fill="#002642"/>
<path d="M248.61 66.751H239.578C237.124 66.751 235.138 64.763 235.138 62.311C235.138 59.859 237.124 57.871 239.578 57.871H248.61C251.064 57.871 253.05 59.859 253.05 62.311C253.05 64.763 251.064 66.751 248.61 66.751Z" fill="#002642"/>
</svg>
