<svg width="352" height="352" viewBox="0 0 352 352" fill="none" xmlns="http://www.w3.org/2000/svg">
<path d="M175.027 274.56C234.645 274.56 282.974 226.231 282.974 166.613C282.974 106.996 234.645 58.6667 175.027 58.6667C115.41 58.6667 67.0807 106.996 67.0807 166.613C67.0807 226.231 115.41 274.56 175.027 274.56Z" fill="#EAEAEA"/>
<path d="M137.481 96.2133H245.427V143.593H137.481V96.2133Z" fill="#BF7E68"/>
<path d="M245.427 148.287H137.481C134.886 148.287 132.787 146.186 132.787 143.594V96.2133C132.787 93.6214 134.886 91.52 137.481 91.52H245.427C248.022 91.52 250.121 93.6214 250.121 96.2133V143.594C250.121 146.186 248.022 148.287 245.427 148.287ZM142.174 138.9H240.734V100.907H142.174V138.9Z" fill="#4C241D"/>
<path d="M189.107 208.572L154.401 212.103L184.727 307.413H194.633L227.648 212.493L189.107 208.572Z" fill="white"/>
<path d="M194.63 312.107H184.726C182.682 312.107 180.872 310.784 180.253 308.837L149.93 213.527C149.504 212.18 149.706 210.711 150.48 209.528C151.254 208.348 152.519 207.578 153.927 207.436L188.632 203.904C188.952 203.873 189.265 203.873 189.585 203.904L228.127 207.825C229.552 207.97 230.836 208.761 231.61 209.97C232.38 211.182 232.555 212.68 232.082 214.036L199.063 308.956C198.407 310.842 196.63 312.107 194.63 312.107ZM188.159 302.72H191.294L221.265 216.56L189.109 213.29L160.628 216.187L188.159 302.72Z" fill="#4C241D"/>
<path d="M191.454 227.627C182.382 227.627 175.027 220.272 175.027 211.2V185.387H207.881V211.2C207.881 220.272 200.526 227.627 191.454 227.627Z" fill="#FFE8DC"/>
<path d="M191.454 232.32C179.807 232.32 170.334 222.847 170.334 211.2V185.387C170.334 182.795 172.433 180.693 175.027 180.693H207.881C210.475 180.693 212.574 182.795 212.574 185.387V211.2C212.574 222.847 203.101 232.32 191.454 232.32ZM179.721 190.08V211.2C179.721 217.67 184.982 222.933 191.454 222.933C197.926 222.933 203.187 217.67 203.187 211.2V190.08H179.721Z" fill="#4C241D"/>
<path d="M81.1608 245.484V307.413H184.727L154.401 212.103L106.958 216.931C92.3063 218.421 81.1608 230.757 81.1608 245.484Z" fill="#002642"/>
<path d="M184.726 312.107H81.1607C78.5665 312.107 76.4674 310.005 76.4674 307.413V245.484C76.4674 228.287 89.3694 214.003 106.479 212.262L153.926 207.436C156.126 207.205 158.203 208.564 158.876 210.681L189.2 305.991C189.654 307.419 189.397 308.975 188.517 310.185C187.633 311.392 186.225 312.107 184.726 312.107ZM85.8541 302.72H178.309L151.084 217.158L107.433 221.597C95.1316 222.85 85.8541 233.119 85.8541 245.482V302.72Z" fill="#4C241D"/>
<path d="M238.194 235.646L259.854 230.231L256.901 215.469L227.648 212.493L194.633 307.413H204.331L254.439 257.306L238.194 235.646Z" fill="#004D84"/>
<path d="M204.329 312.107H194.63C193.108 312.107 191.683 311.371 190.803 310.133C189.923 308.893 189.699 307.305 190.197 305.87L223.216 210.95C223.931 208.899 226.003 207.581 228.125 207.824L257.377 210.801C259.425 211.01 261.098 212.529 261.502 214.547L264.454 229.31C264.945 231.767 263.423 234.177 260.989 234.785L246.19 238.486L258.193 254.489C259.595 256.359 259.408 258.973 257.758 260.624L207.648 310.732C206.767 311.612 205.576 312.107 204.329 312.107ZM201.23 302.72H202.385L248.241 256.866L234.44 238.464C233.496 237.206 233.243 235.557 233.771 234.078C234.298 232.595 235.531 231.476 237.058 231.094L254.369 226.765L252.975 219.788L230.86 217.537L201.23 302.72Z" fill="#4C241D"/>
<path d="M141.684 235.646L120.025 230.231L122.977 215.469L154.401 212.103L185.246 307.413H175.547L125.439 257.306L141.684 235.646Z" fill="#004D84"/>
<path d="M185.244 312.107H175.545C174.299 312.107 173.107 311.612 172.227 310.732L122.122 260.624C120.472 258.972 120.284 256.359 121.686 254.489L133.686 238.484L118.887 234.785C116.453 234.177 114.932 231.767 115.422 229.31L118.374 214.548C118.778 212.538 120.437 211.02 122.476 210.803L153.904 207.437C156.077 207.183 158.181 208.541 158.867 210.657L189.708 305.967C190.172 307.397 189.924 308.96 189.039 310.174C188.155 311.389 186.748 312.107 185.244 312.107ZM177.489 302.72H178.79L151.111 217.177L126.902 219.769L125.505 226.765L142.821 231.093C144.347 231.473 145.58 232.593 146.107 234.076C146.634 235.557 146.382 237.205 145.438 238.462L131.638 256.867L177.489 302.72Z" fill="#4C241D"/>
<path d="M271.258 216.929L256.9 215.469L259.852 230.231L238.193 235.646L254.437 257.306L204.331 307.413H297.055V245.484C297.054 230.757 285.909 218.421 271.258 216.929Z" fill="#002642"/>
<path d="M297.054 312.107H204.329C202.432 312.107 200.717 310.963 199.994 309.21C199.265 307.454 199.669 305.437 201.011 304.095L248.242 256.866L234.441 238.464C233.497 237.206 233.245 235.557 233.773 234.078C234.299 232.595 235.533 231.476 237.059 231.094L254.371 226.765L252.298 216.391C252.005 214.929 252.426 213.416 253.426 212.313C254.426 211.211 255.859 210.633 257.377 210.801L271.736 212.258V212.261C288.845 214.002 301.747 228.284 301.747 245.482V307.413C301.747 310.005 299.648 312.107 297.054 312.107ZM215.659 302.72H292.361V245.484C292.361 233.12 283.084 222.851 270.782 221.598V221.6L262.747 220.783L264.452 229.313C264.942 231.77 263.42 234.18 260.987 234.787L246.188 238.488L258.191 254.491C259.593 256.362 259.405 258.976 257.756 260.627L215.659 302.72Z" fill="#4C241D"/>
<path d="M71.774 58.6667C69.1798 58.6667 67.0807 56.5652 67.0807 53.9733V44.5867C67.0807 41.9948 69.1798 39.8933 71.774 39.8933C74.3683 39.8933 76.4674 41.9948 76.4674 44.5867V53.9733C76.4674 56.5652 74.3683 58.6667 71.774 58.6667Z" fill="#4C241D"/>
<path d="M71.774 86.8267C69.1798 86.8267 67.0807 84.7252 67.0807 82.1333V72.7467C67.0807 70.1548 69.1798 68.0533 71.774 68.0533C74.3683 68.0533 76.4674 70.1548 76.4674 72.7467V82.1333C76.4674 84.7252 74.3683 86.8267 71.774 86.8267Z" fill="#4C241D"/>
<path d="M62.3874 68.0533H53.0007C50.4065 68.0533 48.3074 65.9519 48.3074 63.36C48.3074 60.7681 50.4065 58.6667 53.0007 58.6667H62.3874C64.9816 58.6667 67.0807 60.7681 67.0807 63.36C67.0807 65.9519 64.9816 68.0533 62.3874 68.0533Z" fill="#4C241D"/>
<path d="M90.5474 68.0533H81.1607C78.5665 68.0533 76.4674 65.9519 76.4674 63.36C76.4674 60.7681 78.5665 58.6667 81.1607 58.6667H90.5474C93.1417 58.6667 95.2407 60.7681 95.2407 63.36C95.2407 65.9519 93.1417 68.0533 90.5474 68.0533Z" fill="#4C241D"/>
<path d="M285.321 180.693C276.264 180.693 268.894 173.324 268.894 164.267C268.894 155.21 276.264 147.84 285.321 147.84C294.378 147.84 301.747 155.21 301.747 164.267C301.747 173.324 294.378 180.693 285.321 180.693ZM285.321 157.227C281.438 157.227 278.281 160.384 278.281 164.267C278.281 168.149 281.438 171.307 285.321 171.307C289.203 171.307 292.361 168.149 292.361 164.267C292.361 160.384 289.203 157.227 285.321 157.227Z" fill="#4C241D"/>
<path d="M298.674 107.882C301.445 107.882 303.692 105.636 303.692 102.865C303.692 100.094 301.445 97.8478 298.674 97.8478C295.903 97.8478 293.657 100.094 293.657 102.865C293.657 105.636 295.903 107.882 298.674 107.882Z" fill="#4C241D"/>
<path d="M87.4744 168.895C90.2454 168.895 92.4916 166.649 92.4916 163.878C92.4916 161.107 90.2454 158.861 87.4744 158.861C84.7035 158.861 82.4573 161.107 82.4573 163.878C82.4573 166.649 84.7035 168.895 87.4744 168.895Z" fill="#4C241D"/>
<path d="M191.454 194.773C169.421 194.773 151.561 176.913 151.561 154.88V105.6H231.347V154.88C231.347 176.913 213.487 194.773 191.454 194.773Z" fill="#FFE8DC"/>
<path d="M191.454 199.467C166.869 199.467 146.867 179.465 146.867 154.88V105.6C146.867 103.008 148.967 100.907 151.561 100.907H231.347C233.942 100.907 236.041 103.008 236.041 105.6V154.88C236.041 179.465 216.04 199.467 191.454 199.467ZM156.254 110.293V154.88C156.254 174.29 172.044 190.08 191.454 190.08C210.865 190.08 226.654 174.29 226.654 154.88V110.293H156.254Z" fill="#4C241D"/>
<path d="M172.455 166.613C172.455 158.838 180.575 152.533 190.589 152.533C200.604 152.533 208.723 158.838 208.723 166.613H172.455Z" fill="#BF7E68"/>
<path d="M208.724 171.307H172.457C169.862 171.307 167.763 169.205 167.763 166.613C167.763 156.262 178.003 147.84 190.588 147.84C203.178 147.84 213.418 156.262 213.418 166.613C213.418 169.205 211.319 171.307 208.724 171.307ZM179.015 161.92H202.165C199.805 159.138 195.446 157.227 190.588 157.227C185.73 157.227 181.376 159.138 179.015 161.92Z" fill="#4C241D"/>
<path d="M242.482 152.979H231.349V129.067H242.482C249.086 129.067 254.439 134.419 254.439 141.023C254.439 147.626 249.086 152.979 242.482 152.979Z" fill="#FFE8DC"/>
<path d="M242.481 157.674H231.349C228.754 157.674 226.655 155.572 226.655 152.98V129.067C226.655 126.475 228.754 124.373 231.349 124.373H242.481C251.661 124.373 259.132 131.842 259.132 141.022C259.132 150.202 251.661 157.674 242.481 157.674ZM236.041 148.287H242.48C246.486 148.287 249.744 145.029 249.744 141.023C249.744 137.02 246.486 133.761 242.48 133.761H236.041V148.287Z" fill="#4C241D"/>
<path d="M140.427 152.979H151.561V129.067H140.427C133.823 129.067 128.471 134.419 128.471 141.023C128.471 147.626 133.823 152.979 140.427 152.979Z" fill="#FFE8DC"/>
<path d="M151.561 157.674H140.428C131.248 157.674 123.777 150.203 123.777 141.023C123.777 131.843 131.248 124.373 140.428 124.373H151.561C154.155 124.373 156.254 126.475 156.254 129.067V152.98C156.254 155.572 154.155 157.674 151.561 157.674ZM140.428 133.76C136.422 133.76 133.164 137.018 133.164 141.022C133.164 145.028 136.422 148.286 140.428 148.286H146.867V133.76H140.428Z" fill="#4C241D"/>
<path d="M137.481 82.1333H245.427V105.6H137.481V82.1333Z" fill="#004D84"/>
<path d="M245.427 110.293H137.481C134.886 110.293 132.787 108.192 132.787 105.6V82.1333C132.787 79.5414 134.886 77.44 137.481 77.44H245.427C248.022 77.44 250.121 79.5414 250.121 82.1333V105.6C250.121 108.192 248.022 110.293 245.427 110.293ZM142.174 100.907H240.734V86.8267H142.174V100.907Z" fill="#4C241D"/>
<path d="M245.427 82.1333H137.481L127.666 44.5867H255.243L245.427 82.1333Z" fill="#002642"/>
<path d="M245.427 86.8267H137.481C135.345 86.8267 133.48 85.3846 132.939 83.3207L123.121 45.7741C122.755 44.3672 123.062 42.8701 123.951 41.7179C124.836 40.568 126.211 39.8933 127.663 39.8933H255.245C256.697 39.8933 258.072 40.5668 258.957 41.7179C259.846 42.8701 260.154 44.3672 259.787 45.7741L249.969 83.3207C249.43 85.3846 247.564 86.8267 245.427 86.8267ZM141.106 77.44H241.802L249.167 49.28H133.74L141.106 77.44Z" fill="#4C241D"/>
<path d="M207.881 138.453C210.473 138.453 212.574 136.352 212.574 133.76C212.574 131.168 210.473 129.067 207.881 129.067C205.289 129.067 203.187 131.168 203.187 133.76C203.187 136.352 205.289 138.453 207.881 138.453Z" fill="#4C241D"/>
<path d="M175.027 138.453C177.619 138.453 179.721 136.352 179.721 133.76C179.721 131.168 177.619 129.067 175.027 129.067C172.435 129.067 170.334 131.168 170.334 133.76C170.334 136.352 172.435 138.453 175.027 138.453Z" fill="#4C241D"/>
</svg>
