<svg width="512" height="512" viewBox="0 0 512 512" fill="none" xmlns="http://www.w3.org/2000/svg">
<path d="M283.805 381.781C370.521 381.781 440.818 311.484 440.818 224.768C440.818 138.052 370.521 67.7547 283.805 67.7547C197.089 67.7547 126.792 138.052 126.792 224.768C126.792 311.484 197.089 381.781 283.805 381.781Z" fill="#EAEAEA"/>
<path d="M201.571 347.334C275.091 347.334 334.691 287.734 334.691 214.214C334.691 140.694 275.091 81.094 201.571 81.094C128.051 81.094 68.451 140.694 68.451 214.214C68.451 287.734 128.051 347.334 201.571 347.334Z" fill="#81C4F4"/>
<path d="M201.566 354.096C165.733 354.096 129.893 340.456 102.613 313.172C48.0461 258.608 48.0461 169.822 102.613 115.258C157.181 60.6908 245.973 60.6976 300.527 115.258C355.094 169.822 355.094 258.608 300.527 313.172C273.246 340.454 237.406 354.096 201.566 354.096ZM201.571 87.9821C169.225 87.9821 136.885 100.292 112.265 124.913C63.0238 174.157 63.0238 254.276 112.265 303.519C161.505 352.756 241.632 352.768 290.871 303.519C340.111 254.275 340.111 174.155 290.871 124.913C266.252 100.292 233.912 87.9821 201.571 87.9821Z" fill="#002642"/>
<path d="M201.571 323.142C261.73 323.142 310.499 274.373 310.499 214.214C310.499 154.055 261.73 105.286 201.571 105.286C141.412 105.286 92.6429 154.055 92.6429 214.214C92.6429 274.373 141.412 323.142 201.571 323.142Z" fill="white"/>
<path d="M201.571 329.916C171.924 329.916 142.285 318.633 119.718 296.066C74.5916 250.933 74.5916 177.495 119.718 132.366C164.857 87.2329 238.297 87.2397 283.424 132.366C328.55 177.495 328.55 250.933 283.424 296.066C260.859 318.631 231.212 329.916 201.571 329.916ZM201.571 112.162C175.425 112.162 149.277 122.115 129.37 142.019C89.5641 181.825 89.5641 246.601 129.37 286.411C169.19 326.224 233.964 326.224 273.77 286.411C313.576 246.601 313.576 181.825 273.77 142.019C253.865 122.115 227.719 112.162 201.571 112.162Z" fill="#002642"/>
<path d="M288.394 315.592L307.7 296.286L404.229 392.815L384.923 412.121L288.394 315.592Z" fill="#E7D1C4"/>
<path d="M385.005 418.954C383.259 418.954 381.512 418.287 380.179 416.954L283.633 320.411C282.353 319.131 281.632 317.394 281.632 315.585C281.632 313.776 282.353 312.038 283.633 310.758L302.945 291.453C305.611 288.787 309.932 288.787 312.598 291.453L409.137 387.995C411.803 390.661 411.803 394.982 409.137 397.648L389.832 416.954C388.499 418.289 386.751 418.954 385.005 418.954ZM298.112 315.585L385.005 402.475L394.658 392.822L307.772 305.932L298.112 315.585Z" fill="#002642"/>
<path d="M428.448 436.265C417.785 446.928 400.495 446.928 389.832 436.265L317.425 363.858L356.041 325.241L428.448 397.648C439.113 408.312 439.113 425.602 428.448 436.265Z" fill="#626568"/>
<path d="M409.139 451.072C400.399 451.072 391.66 447.746 385.005 441.091L312.598 368.684C309.932 366.019 309.932 361.697 312.598 359.031L351.212 320.411C353.772 317.851 358.304 317.851 360.864 320.411L433.278 392.822C446.585 406.129 446.585 427.785 433.278 441.091C426.626 447.746 417.886 451.072 409.139 451.072ZM327.078 363.858L394.658 431.439C402.652 439.426 415.645 439.412 423.625 431.439C431.606 423.451 431.606 410.458 423.625 402.475L356.038 334.891L327.078 363.858ZM428.452 436.265H428.518H428.452Z" fill="#002642"/>
<path d="M406.685 88.2347C402.912 88.2347 399.858 85.178 399.858 81.408V67.7547C399.858 63.9846 402.912 60.928 406.685 60.928C410.458 60.928 413.512 63.9846 413.512 67.7547V81.408C413.512 85.178 410.458 88.2347 406.685 88.2347Z" fill="#002642"/>
<path d="M406.685 129.195C402.912 129.195 399.858 126.138 399.858 122.368V108.715C399.858 104.945 402.912 101.888 406.685 101.888C410.458 101.888 413.512 104.945 413.512 108.715V122.368C413.512 126.138 410.458 129.195 406.685 129.195Z" fill="#002642"/>
<path d="M393.032 101.888H379.378C375.605 101.888 372.552 98.8314 372.552 95.0613C372.552 91.2913 375.605 88.2347 379.378 88.2347H393.032C396.805 88.2347 399.858 91.2913 399.858 95.0613C399.858 98.8314 396.805 101.888 393.032 101.888Z" fill="#002642"/>
<path d="M433.992 101.888H420.338C416.565 101.888 413.512 98.8314 413.512 95.0613C413.512 91.2913 416.565 88.2347 420.338 88.2347H433.992C437.765 88.2347 440.818 91.2913 440.818 95.0613C440.818 98.8314 437.765 101.888 433.992 101.888Z" fill="#002642"/>
<path d="M109.725 450.048C96.5512 450.048 85.8317 439.328 85.8317 426.155C85.8317 412.981 96.5512 402.261 109.725 402.261C122.899 402.261 133.618 412.981 133.618 426.155C133.618 439.328 122.899 450.048 109.725 450.048ZM109.725 415.915C104.078 415.915 99.485 420.507 99.485 426.155C99.485 431.802 104.078 436.395 109.725 436.395C115.372 436.395 119.965 431.802 119.965 426.155C119.965 420.507 115.372 415.915 109.725 415.915Z" fill="#002642"/>
<path d="M204.081 404.958C208.112 404.958 211.379 401.691 211.379 397.66C211.379 393.63 208.112 390.362 204.081 390.362C200.051 390.362 196.784 393.63 196.784 397.66C196.784 401.691 200.051 404.958 204.081 404.958Z" fill="#002642"/>
<path d="M443.015 206.985C447.045 206.985 450.313 203.717 450.313 199.687C450.313 195.656 447.045 192.389 443.015 192.389C438.984 192.389 435.717 195.656 435.717 199.687C435.717 203.717 438.984 206.985 443.015 206.985Z" fill="#002642"/>
<path d="M253.549 251.356H150.221C141.053 251.356 133.618 243.924 133.618 234.754V220.889C133.618 211.721 141.051 204.286 150.221 204.286H253.551C262.719 204.286 270.153 211.719 270.153 220.889V234.754C270.152 243.924 262.719 251.356 253.549 251.356Z" fill="#004D84"/>
<path d="M253.551 258.181H150.219C137.3 258.181 126.792 247.671 126.792 234.754V220.887C126.792 207.971 137.298 197.46 150.219 197.46H253.553C266.472 197.46 276.98 207.969 276.98 220.887V234.754C276.978 247.671 266.472 258.181 253.551 258.181ZM150.219 211.115C144.833 211.115 140.445 215.497 140.445 220.889V234.755C140.445 240.145 144.831 244.53 150.219 244.53H253.553C258.939 244.53 263.327 240.147 263.327 234.755V220.889C263.327 215.499 258.941 211.115 253.553 211.115H150.219Z" fill="#002642"/>
<path d="M236.774 163.328H166.351C160.432 163.328 155.365 168.373 154.317 175.305L149.939 204.288H253.187L248.81 175.305C247.762 168.373 242.693 163.328 236.774 163.328Z" fill="#C1DBDC"/>
<path d="M253.186 211.115H149.939C147.953 211.115 146.06 210.248 144.766 208.741C143.466 207.23 142.892 205.234 143.186 203.267L147.565 174.285C149.125 163.982 157.025 156.501 166.352 156.501H236.773C246.093 156.501 254 163.978 255.56 174.278L259.939 203.267C260.232 205.234 259.659 207.234 258.359 208.741C257.065 210.248 255.172 211.115 253.186 211.115ZM157.872 197.461H245.251L242.058 176.324C241.526 172.807 239.251 170.155 236.771 170.155H166.352C163.872 170.155 161.599 172.809 161.072 176.324L157.872 197.461Z" fill="#002642"/>
<path d="M243.371 233.969C247.477 233.969 250.807 230.639 250.807 226.533C250.807 222.426 247.477 219.097 243.371 219.097C239.264 219.097 235.935 222.426 235.935 226.533C235.935 230.639 239.264 233.969 243.371 233.969Z" fill="white"/>
<path d="M161.451 233.969C165.557 233.969 168.887 230.639 168.887 226.533C168.887 222.426 165.557 219.097 161.451 219.097C157.344 219.097 154.015 222.426 154.015 226.533C154.015 230.639 157.344 233.969 161.451 233.969Z" fill="white"/>
<path d="M160.925 272.555C157.152 272.555 154.098 269.498 154.098 265.728V252.075C154.098 248.305 157.152 245.248 160.925 245.248C164.698 245.248 167.752 248.305 167.752 252.075V265.728C167.752 269.498 164.698 272.555 160.925 272.555Z" fill="#002642"/>
<path d="M242.845 272.555C239.072 272.555 236.018 269.498 236.018 265.728V252.075C236.018 248.305 239.072 245.248 242.845 245.248C246.618 245.248 249.672 248.305 249.672 252.075V265.728C249.672 269.498 246.618 272.555 242.845 272.555Z" fill="#002642"/>
</svg>
