<svg width="253" height="254" viewBox="0 0 253 254" fill="none" xmlns="http://www.w3.org/2000/svg">
<path d="M126.211 0C60.0737 0 5.83135 50.646 0 115.262H103.16V80.6828C103.16 76.027 105.971 71.8208 110.27 70.0332C114.582 68.2477 119.537 69.2375 122.834 72.5341L168.938 118.64C173.446 123.146 173.446 130.43 168.938 134.938L122.834 181.042C119.537 184.339 114.582 185.331 110.27 183.543C105.96 181.757 103.16 177.549 103.16 172.893V138.315H0C5.83135 202.93 60.0737 253.576 126.211 253.576C196.233 253.576 253 196.81 253 126.789C253 56.7665 196.233 0 126.211 0V0Z" fill="#004D84"/>
</svg>
