<svg width="73" height="71" viewBox="0 0 73 71" fill="none" xmlns="http://www.w3.org/2000/svg">
<g clip-path="url(#clip0)">
<path d="M68.9485 35.5001C68.9485 18.1008 54.3894 3.94055 36.5 3.94055C18.6107 3.94055 4.05151 18.1008 4.05151 35.5001C4.05151 52.8993 18.6107 67.0596 36.5 67.0596C54.3894 67.0596 68.9485 52.8993 68.9485 35.5001Z" fill="#FFC10D"/>
<path d="M36.5001 0C16.3625 0 0 15.9142 0 35.5001C0 55.0859 16.3625 71.0002 36.5001 71.0002C56.6376 71.0002 73.0002 55.0859 73.0002 35.5001C73.0002 15.9142 56.6375 0 36.5001 0ZM4.05158 35.5001C4.05158 18.1008 18.6107 3.94057 36.5001 3.94057C54.3894 3.94057 68.9486 18.1008 68.9486 35.5001C68.9486 52.8993 54.3894 67.0596 36.5001 67.0596C18.6107 67.0596 4.05158 52.8993 4.05158 35.5001Z" fill="#194F82"/>
<path d="M61.0016 35.5001C61.0016 22.3571 50.0131 11.6698 36.5001 11.6698C22.987 11.6698 11.9983 22.3571 11.9983 35.5001C11.9983 48.6431 22.9868 59.3304 36.4999 59.3304C50.0129 59.3304 61.0016 48.6429 61.0016 35.5001Z" fill="white"/>
<path d="M36.5001 7.71747C20.7507 7.71747 7.93481 20.1822 7.93481 35.5001C7.93481 50.818 20.7507 63.2827 36.5001 63.2827C52.2494 63.2827 65.0653 50.818 65.0653 35.5001C65.0653 20.1822 52.2494 7.71747 36.5001 7.71747ZM11.9983 35.5001C11.9983 22.3571 22.9868 11.6698 36.4999 11.6698C50.0129 11.6698 61.0014 22.3573 61.0014 35.5001C61.0014 48.643 50.0129 59.3304 36.4999 59.3304C22.9868 59.3304 11.9983 48.643 11.9983 35.5001Z" fill="#194F82"/>
<path d="M36.5002 15.6102C28.5535 15.6102 21.6887 20.0418 18.2982 26.4846H24.2012C25.3192 26.4846 26.2329 27.3615 26.2329 28.4607C26.2329 29.5481 25.3313 30.4368 24.2012 30.4368H16.7474C16.543 31.15 16.3987 31.8867 16.2905 32.6352H19.789C20.9071 32.6352 21.8207 33.5121 21.8207 34.6112C21.8207 35.6987 20.9191 36.5873 19.789 36.5873H16.1101C16.6872 47.0527 25.6079 55.4014 36.5 55.4014C47.777 55.4014 56.9502 46.4796 56.9502 35.5115C56.9502 24.5433 47.7772 15.6102 36.5002 15.6102Z" fill="#56ACE0"/>
<path d="M46.13 33.5238H38.5317V19.2349C38.5317 18.1475 37.6302 17.2589 36.5 17.2589C35.3699 17.2589 34.4683 18.1357 34.4683 19.2349V35.4999C34.4683 36.5873 35.3699 37.476 36.5 37.476H46.13C47.2481 37.476 48.1617 36.5991 48.1617 35.4999C48.1617 34.4007 47.2482 33.5238 46.13 33.5238Z" fill="#194F82"/>
</g>
<defs>
<clipPath id="clip0">
<rect width="73" height="71" fill="white"/>
</clipPath>
</defs>
</svg>
